<svg width="17" height="22" viewBox="0 0 17 22" fill="none" xmlns="http://www.w3.org/2000/svg">
  <path d="M8.35734 22C10.5738 22 12.6995 21.1308 14.2668 19.5837C15.8341 18.0365 16.7146 15.9381 16.7146 13.7501C16.7146 11.5621 15.8341 9.46373 14.2668 7.91658C12.6995 6.36943 10.5738 5.50025 8.35734 5.50025C8.02861 5.50382 7.70037 5.52654 7.37435 5.56828C7.94973 3.04737 9.11192 1.45165 9.11544 1.44692C9.24336 1.26859 9.30256 1.05102 9.28238 0.833423C9.2622 0.615819 9.16397 0.412483 9.00539 0.260036C8.8468 0.107591 8.63828 0.0160554 8.41739 0.00192189C8.19649 -0.0122116 7.97775 0.0519821 7.80055 0.182944C7.80055 0.182944 0.611152 5.3872 0.054488 12.8478C0.0196598 13.1474 0.00149803 13.4486 7.89319e-05 13.7501C-0.000251042 13.7806 0.000960122 13.8111 0.0037067 13.8414C0.0280538 16.013 0.918787 18.0874 2.48266 19.6148C4.04654 21.1421 6.15742 21.9992 8.35734 22Z" fill="#8D98BA"/>
</svg>
