<svg width="20" height="16" viewBox="0 0 20 16" fill="none" xmlns="http://www.w3.org/2000/svg">
  <path d="M12.33 16.0002H12.12C11.6968 15.9582 11.2979 15.7824 10.9814 15.4983C10.6649 15.2141 10.4472 14.8365 10.36 14.4202L7.68 2.00023L4.92 8.40023C4.84193 8.5791 4.71323 8.73123 4.54975 8.83784C4.38627 8.94446 4.19517 9.00091 4 9.00023H1C0.734784 9.00023 0.48043 8.89487 0.292893 8.70733C0.105357 8.5198 0 8.26544 0 8.00023C0 7.73501 0.105357 7.48066 0.292893 7.29312C0.48043 7.10558 0.734784 7.00023 1 7.00023H3.34L5.85 1.21023C6.01896 0.821688 6.30695 0.496846 6.67244 0.282536C7.03793 0.0682271 7.46203 -0.0244763 7.88361 0.0177922C8.30518 0.0600608 8.70244 0.235118 9.01811 0.517722C9.33377 0.800327 9.55154 1.17588 9.64 1.59023L12.32 14.0002L15.08 7.62023C15.155 7.43761 15.2824 7.28128 15.4461 7.17095C15.6099 7.06061 15.8026 7.00121 16 7.00023H19C19.2652 7.00023 19.5196 7.10558 19.7071 7.29312C19.8946 7.48066 20 7.73501 20 8.00023C20 8.26544 19.8946 8.5198 19.7071 8.70733C19.5196 8.89487 19.2652 9.00023 19 9.00023H16.66L14.15 14.7902C13.9967 15.1467 13.7431 15.451 13.4199 15.6658C13.0967 15.8807 12.718 15.9969 12.33 16.0002Z" fill="white"/>
</svg>
