<?xml version="1.0" encoding="utf-8"?>
<!-- Generator: Adobe Illustrator 16.0.0, SVG Export Plug-In . SVG Version: 6.00 Build 0)  -->
<!DOCTYPE svg PUBLIC "-//W3C//DTD SVG 1.1//EN" "http://www.w3.org/Graphics/SVG/1.1/DTD/svg11.dtd">
<svg version="1.1" id="Layer_1" xmlns="http://www.w3.org/2000/svg" xmlns:xlink="http://www.w3.org/1999/xlink" x="0px" y="0px"
	 width="1078.447px" height="299.985px" viewBox="0 0 1078.447 299.985" enable-background="new 0 0 1078.447 299.985"
	 xml:space="preserve">
<g>
	<g>
		<path fill="#223F84" d="M-250.26,193.694c1.988,3.053,4.199,5.941,6.611,8.648c-0.838-3.287-1.471-6.656-1.926-10.08
			C-247.119,192.782-248.68,193.261-250.26,193.694"/>
		<path fill="#223F84" d="M-246.359,180.702c0-7.369,0.926-14.521,2.646-21.357c-2.426-0.203-4.871-0.33-7.352-0.33
			c-3.633,0-7.205,0.248-10.723,0.678c0.949,12.488,5.051,24.086,11.527,34.006c1.58-0.438,3.141-0.916,4.686-1.436
			C-246.072,188.478-246.359,184.626-246.359,180.702"/>
		<g>
			<path fill="#223F84" d="M-159.238,93.585c3.529,0,7,0.232,10.424,0.639c-11.611-7.908-25.635-12.539-40.746-12.539
				c-0.436,0-0.869,0.025-1.309,0.035c1.789,5.266,3.082,10.754,3.832,16.42C-178.303,95.198-168.965,93.585-159.238,93.585"/>
			<path fill="#A0DBEB" d="M-187.037,98.14c0.125,0.939,0.258,1.875,0.352,2.82c33.045,12.377,56.574,44.236,56.574,81.602
				c0,4.064-0.299,8.055-0.838,11.969c0.195,0.469,0.371,0.945,0.559,1.414c8.361-11.811,13.291-26.227,13.291-41.799
				c0-24.91-12.574-46.879-31.717-59.92c-3.422-0.408-6.893-0.645-10.422-0.645C-168.961,93.581-178.303,95.198-187.037,98.14"/>
			<path fill="#3BC0DD" d="M-130.391,195.944c-0.188-0.469-0.361-0.945-0.559-1.414c-0.131,0.945-0.275,1.883-0.438,2.814
				C-131.045,196.89-130.723,196.415-130.391,195.944"/>
			<path fill="#223F84" d="M-234.223,97.11c5.498-1.086,11.174-1.67,16.99-1.67"/>
			<path fill="#223F84" d="M-217.232,95.44c9.197,0,18.061,1.438,26.387,4.082c1.256-0.492,2.525-0.951,3.809-1.383
				c-0.75-5.666-2.043-11.154-3.828-16.422c-16.348,0.289-31.367,5.988-43.357,15.393"/>
			<path fill="#A0DBEB" d="M-187.037,98.14c-1.283,0.432-2.553,0.889-3.809,1.381c1.404,0.445,2.789,0.928,4.16,1.439
				C-186.779,100.015-186.912,99.079-187.037,98.14"/>
			<path fill="#6BCCE2" d="M-192.906,143.13c28.039,6.021,51.066,25.52,61.957,51.4c0.539-3.916,0.838-7.906,0.838-11.969
				c0-37.363-23.529-69.225-56.572-81.6c0.281,2.875,0.434,5.785,0.434,8.732C-186.25,121.542-188.623,132.831-192.906,143.13"/>
			<path fill="#3BC0DD" d="M-192.906,143.13c-4.063,9.766-9.857,18.625-16.994,26.213c20.766,11.156,36.465,30.49,42.836,53.684
				c14.404-4.701,26.824-13.777,35.68-25.682c0.158-0.932,0.305-1.871,0.436-2.814C-141.84,168.649-164.867,149.151-192.906,143.13"
				/>
			<path fill="#2C95C1" d="M-189.561,226.604c7.855,0,15.414-1.266,22.496-3.578c-6.371-23.195-22.07-42.529-42.836-53.684
				c-9.719,10.334-21.926,18.291-35.674,22.92c0.455,3.424,1.088,6.795,1.926,10.082
				C-230.377,217.222-211.066,226.604-189.561,226.604"/>
			<path fill="#1E68A5" d="M-234.223,97.106c-16.916,13.268-27.799,33.875-27.799,57.041"/>
			<path fill="#1E68A5" d="M-262.021,154.147c0,1.098,0.037,2.191,0.086,3.281c6.945-4.975,14.652-8.951,22.914-11.725
				c9.266-21.088,26.637-37.789,48.176-46.184c-8.324-2.645-17.188-4.08-26.389-4.08c-5.814,0-11.49,0.584-16.988,1.666"/>
			<path fill="#27BADA" d="M-251.064,159.015c2.48,0,4.928,0.127,7.354,0.33c1.189-4.711,2.77-9.27,4.689-13.643
				c-8.262,2.775-15.969,6.752-22.914,11.725c0.033,0.76,0.09,1.514,0.148,2.266C-258.27,159.263-254.697,159.015-251.064,159.015"
				/>
			<path fill="#33B1D3" d="M-239.021,145.704c8.717-2.928,18.035-4.535,27.736-4.535c6.307,0,12.453,0.684,18.379,1.959
				c4.281-10.295,6.656-21.586,6.656-33.434c0-2.947-0.152-5.859-0.434-8.734c-1.373-0.512-2.76-0.994-4.162-1.439
				C-212.385,107.913-229.756,124.618-239.021,145.704"/>
			<path fill="#217DB8" d="M-209.9,169.343c7.137-7.588,12.932-16.447,16.994-26.215c-5.926-1.275-12.072-1.959-18.379-1.959
				c-9.699,0-19.02,1.607-27.736,4.535c-1.92,4.373-3.5,8.93-4.691,13.641C-231.563,160.36-220.119,163.853-209.9,169.343"/>
			<path fill="#33B1D3" d="M-246.359,180.702c0,3.924,0.287,7.775,0.785,11.561c13.748-4.627,25.955-12.582,35.674-22.918
				c-10.219-5.49-21.662-8.986-33.813-10C-245.434,166.181-246.359,173.333-246.359,180.702"/>
		</g>
	</g>
	<g>
		<path fill="#233F84" d="M-371.788,30.746c0.243,0,0.483,0.016,0.72,0.044c-0.803-0.547-1.771-0.867-2.816-0.867
			c-0.03,0-0.06,0.002-0.09,0.003c0.123,0.364,0.213,0.743,0.265,1.135C-373.105,30.857-372.46,30.746-371.788,30.746"/>
		<path fill="#ABDBEB" d="M-373.708,31.06c0.008,0.065,0.017,0.129,0.024,0.194c2.284,0.855,3.909,3.058,3.909,5.639
			c0,0.281-0.021,0.557-0.058,0.827c0.014,0.032,0.025,0.066,0.038,0.099c0.578-0.816,0.919-1.813,0.919-2.889
			c0-1.722-0.869-3.239-2.191-4.141c-0.237-0.029-0.476-0.045-0.72-0.045C-372.459,30.745-373.105,30.857-373.708,31.06"/>
		<path fill="#4CBFDC" d="M-369.794,37.819c-0.013-0.032-0.025-0.066-0.039-0.099c-0.009,0.066-0.019,0.131-0.03,0.195
			C-369.84,37.883-369.817,37.851-369.794,37.819"/>
		<path fill="#233F84" d="M-375.795,30.874c0.636,0,1.249,0.1,1.824,0.282c0.086-0.034,0.173-0.066,0.263-0.097
			c-0.052-0.391-0.141-0.77-0.265-1.134c-1.13,0.02-2.167,0.413-2.996,1.063C-376.59,30.913-376.198,30.874-375.795,30.874"/>
		<path fill="#ABDBEB" d="M-373.708,31.06c-0.088,0.03-0.176,0.062-0.263,0.095c0.097,0.031,0.192,0.064,0.287,0.1
			C-373.691,31.189-373.7,31.125-373.708,31.06"/>
		<path fill="#233F84" d="M-378.078,37.664c0.137,0.21,0.29,0.41,0.456,0.598c-0.058-0.228-0.102-0.461-0.132-0.697
			C-377.86,37.6-377.968,37.633-378.078,37.664"/>
		<path fill="#7BCAE3" d="M-374.115,34.168c1.938,0.417,3.529,1.764,4.282,3.553c0.037-0.271,0.058-0.547,0.058-0.828
			c0-2.582-1.626-4.783-3.91-5.639c0.021,0.199,0.03,0.399,0.03,0.604C-373.655,32.676-373.819,33.458-374.115,34.168"/>
		<path fill="#4CBFDC" d="M-374.115,34.168c-0.281,0.675-0.681,1.287-1.174,1.812c1.435,0.771,2.52,2.106,2.96,3.711
			c0.995-0.325,1.854-0.953,2.466-1.775c0.012-0.064,0.021-0.13,0.03-0.194C-370.585,35.932-372.177,34.585-374.115,34.168"/>
		<path fill="#2C95C1" d="M-373.883,39.938c0.542,0,1.065-0.088,1.555-0.247c-0.44-1.604-1.526-2.939-2.96-3.711
			c-0.672,0.714-1.515,1.265-2.466,1.585c0.032,0.235,0.076,0.469,0.133,0.696C-376.704,39.289-375.37,39.938-373.883,39.938"/>
		<path fill="#1E68A5" d="M-378.89,34.93c0,0.075,0.002,0.152,0.005,0.227c0.48-0.343,1.012-0.618,1.583-0.81
			c0.641-1.458,1.841-2.612,3.33-3.191c-0.575-0.184-1.188-0.283-1.823-0.283c-0.402,0-0.794,0.041-1.175,0.116
			C-378.139,31.905-378.89,33.329-378.89,34.93"/>
		<path fill="#23B9DA" d="M-378.134,35.267c0.172,0,0.341,0.009,0.508,0.022c0.083-0.326,0.191-0.641,0.324-0.942
			c-0.571,0.191-1.103,0.467-1.583,0.81c0.002,0.053,0.006,0.104,0.01,0.157C-378.632,35.284-378.385,35.267-378.134,35.267"/>
		<path fill="#233F84" d="M-377.808,36.765c0-0.509,0.064-1.004,0.183-1.476c-0.167-0.014-0.336-0.022-0.508-0.022
			c-0.251,0-0.498,0.017-0.741,0.046c0.065,0.864,0.349,1.665,0.796,2.351c0.109-0.03,0.218-0.063,0.324-0.1
			C-377.789,37.302-377.808,37.037-377.808,36.765"/>
		<path fill="#33B1D3" d="M-377.301,34.347c0.603-0.203,1.246-0.314,1.917-0.314c0.437,0,0.86,0.049,1.27,0.136
			c0.296-0.712,0.46-1.491,0.46-2.31c0-0.204-0.01-0.405-0.03-0.604c-0.095-0.035-0.19-0.068-0.287-0.1
			C-375.46,31.736-376.661,32.89-377.301,34.347"/>
		<path fill="#1E7CB8" d="M-375.289,35.98c0.494-0.524,0.894-1.137,1.174-1.812c-0.41-0.087-0.833-0.135-1.27-0.135
			c-0.67,0-1.314,0.11-1.917,0.313c-0.132,0.303-0.242,0.618-0.324,0.943C-376.785,35.359-375.995,35.601-375.289,35.98"/>
		<path fill="#33B1D3" d="M-377.808,36.765c0,0.271,0.02,0.537,0.054,0.799c0.95-0.32,1.794-0.869,2.465-1.584
			c-0.706-0.379-1.497-0.619-2.336-0.69C-377.744,35.761-377.808,36.256-377.808,36.765"/>
		<g>
			<defs>
				<path id="SVGID_1_" d="M-377.088,68.622h6.386V43.173h-6.386V68.622z M-443.748,61.275c-1.304-1.371-1.956-3.164-1.956-5.379
					c0-2.152,0.661-3.917,1.98-5.297c1.32-1.38,2.972-2.07,4.955-2.07c2.031,0,3.698,0.683,5.002,2.047
					c1.305,1.364,1.957,3.138,1.957,5.321c0,2.184-0.665,3.969-1.992,5.357c-1.328,1.387-2.991,2.08-4.99,2.08
					C-440.792,63.333-442.444,62.648-443.748,61.275 M-447.692,45.979c-2.916,2.651-4.374,5.965-4.374,9.941
					c0,3.711,1.29,6.865,3.87,9.46c2.582,2.597,5.696,3.896,9.344,3.896c2.479,0,4.749-0.59,6.807-1.768
					c2.058-1.178,3.684-2.81,4.876-4.897c1.192-2.092,1.789-4.336,1.789-6.738c0-2.384-0.593-4.607-1.777-6.667
					c-1.186-2.058-2.833-3.687-4.947-4.888c-2.113-1.2-4.371-1.802-6.771-1.802C-442.195,42.517-445.135,43.671-447.692,45.979
					 M-413.313,61.334c-1.326-1.395-1.988-3.223-1.988-5.484c0-2.214,0.662-4.007,1.988-5.38c1.325-1.371,2.993-2.057,5.004-2.057
					c1.996,0,3.649,0.696,4.959,2.093s1.965,3.185,1.965,5.368c0,2.199-0.667,4.008-2,5.426c-1.333,1.42-2.974,2.128-4.924,2.128
					C-410.32,63.427-411.988,62.73-413.313,61.334 M-411.279,43.383c-1.341,0.577-2.587,1.442-3.742,2.596v-2.807h-6.338v34.758
					h6.338v-12c1.248,1.185,2.503,2.039,3.767,2.56c1.262,0.523,2.627,0.785,4.093,0.785c3.29,0,6.136-1.275,8.538-3.826
					c2.401-2.548,3.601-5.718,3.601-9.507c0-3.929-1.162-7.15-3.484-9.661c-2.324-2.51-5.146-3.766-8.467-3.766
					C-408.504,42.517-409.938,42.806-411.279,43.383 M-340.095,43.687c-1.474,0.779-2.718,1.918-3.732,3.415
					c-0.781-1.497-1.811-2.636-3.09-3.415s-2.715-1.17-4.306-1.17c-1.577,0-3.032,0.297-4.366,0.889
					c-1.335,0.593-2.548,1.49-3.64,2.691v-2.925h-6.385v25.45h6.385V57.301c0-2.449,0.215-4.243,0.644-5.38
					c0.43-1.138,1.08-2.023,1.946-2.655c0.868-0.631,1.833-0.946,2.896-0.946c0.954,0,1.766,0.249,2.438,0.747
					c0.672,0.5,1.176,1.26,1.512,2.28c0.335,1.023,0.504,2.672,0.504,4.949v12.327h6.431V57.137c0-2.433,0.211-4.199,0.633-5.298
					c0.421-1.099,1.064-1.961,1.929-2.585c0.865-0.623,1.844-0.935,2.936-0.935c1.434,0,2.51,0.51,3.229,1.531
					c0.717,1.021,1.076,2.975,1.076,5.859v12.913h6.431V53.698c0-3.056-0.3-5.262-0.901-6.619c-0.602-1.355-1.589-2.456-2.961-3.298
					s-2.964-1.264-4.774-1.264C-337.008,42.517-338.618,42.908-340.095,43.687 M-314.554,61.299
					c-1.328-1.418-1.993-3.227-1.993-5.426c0-2.183,0.653-3.971,1.959-5.368c1.304-1.396,2.945-2.093,4.918-2.093
					c2.02,0,3.69,0.686,5.012,2.057c1.321,1.373,1.982,3.166,1.982,5.38c0,2.262-0.661,4.09-1.982,5.484
					c-1.321,1.396-2.983,2.093-4.989,2.093C-311.589,63.427-313.225,62.719-314.554,61.299 M-319.427,46.283
					c-2.321,2.511-3.481,5.731-3.481,9.661c0,3.789,1.2,6.959,3.598,9.507c2.398,2.55,5.24,3.826,8.527,3.826
					c1.463,0,2.823-0.262,4.076-0.785c1.254-0.521,2.505-1.375,3.751-2.56v2.691h6.385v-25.45h-6.385v2.807
					c-1.137-1.153-2.377-2.019-3.715-2.596c-1.34-0.577-2.772-0.866-4.299-0.866C-314.288,42.517-317.107,43.773-319.427,46.283
					 M-390.163,33.792v9.38h-3.274v5.497h3.274v19.953h6.385V48.669h3.79v-5.497h-3.79v-9.38H-390.163z M-291.775,68.622h6.385
					V33.349h-6.385V68.622z"/>
			</defs>
			<clipPath id="SVGID_2_">
				<use xlink:href="#SVGID_1_"  overflow="visible"/>
			</clipPath>
			
				<linearGradient id="SVGID_3_" gradientUnits="userSpaceOnUse" x1="307.6284" y1="520.7891" x2="308.4409" y2="520.7891" gradientTransform="matrix(205.1697 0 0 -205.1697 -63568.1016 106905.8516)">
				<stop  offset="0" style="stop-color:#233F83"/>
				<stop  offset="1" style="stop-color:#25B9DA"/>
			</linearGradient>
			<rect x="-452.065" y="33.349" clip-path="url(#SVGID_2_)" fill="url(#SVGID_3_)" width="166.675" height="44.582"/>
		</g>
	</g>
	<path fill="#223F84" d="M-387.04,146.888c5.511-3.055,9.846-6.939,12.905-11.57c3.453-5.229,5.204-11.084,5.204-17.408
		c0-10.158-3.987-19.053-11.851-26.438c-7.849-7.367-17.695-11.102-29.266-11.102c-12.966,0-23.885,4.475-32.454,13.301
		c-5.917,6.102-9.662,14.201-11.129,24.074l-0.341,2.293h27.198l0.47-1.336c1.103-3.133,3.034-5.744,5.742-7.76
		c2.884-2.15,6.136-3.24,9.667-3.24c3.985,0,7.24,1.16,9.674,3.449c2.416,2.273,3.641,5.18,3.641,8.641
		c0,2.672-0.814,5.242-2.418,7.637c-1.62,2.412-3.925,4.338-6.852,5.727c-2.879,1.367-7.105,2.283-12.92,2.799l-1.823,0.162v24.479
		l1.948,0.051c9.556,0.248,16.981,2.418,22.067,6.453c5.185,4.111,7.813,9.201,7.813,15.131c0,5.406-1.942,10.045-5.772,13.787
		c-3.836,3.746-8.75,5.646-14.604,5.646c-5.619,0-10.32-1.672-13.973-4.967c-3.521-3.18-5.888-8.08-7.033-14.568l-0.292-1.652
		h-28.001l0.157,2.146c1.004,13.688,5.772,24.713,14.171,32.77c8.628,8.277,19.919,12.475,33.558,12.475
		c14.382,0,26.399-4.447,35.719-13.221c9.331-8.787,14.063-19.662,14.063-32.322c0-8.658-2.46-16.291-7.313-22.688
		C-373.496,153.823-379.528,149.544-387.04,146.888z"/>
	<path fill="#223F84" d="M-278.611,151.583c-8-8.182-17.761-12.516-29.035-12.893l23.976-46.529l-24.252-12.129l-36.043,70.563
		c-4.656,8.994-7.675,15.771-8.974,20.143c-1.307,4.402-1.97,8.838-1.97,13.186c0,11.453,4.291,21.746,12.754,30.592
		c8.476,8.859,19.222,13.352,31.94,13.352c12.145,0,22.665-4.328,31.266-12.863c8.6-8.537,12.961-19.09,12.961-31.361
		C-265.988,170.938-270.236,160.151-278.611,151.583z M-293.791,183.265c0,5.164-1.679,9.49-4.99,12.859
		c-3.304,3.363-7.309,5.068-11.903,5.068c-4.341,0-8.202-1.732-11.475-5.152c-3.283-3.43-4.948-7.729-4.948-12.775
		c0-5.051,1.588-9.305,4.72-12.641c3.114-3.322,7.019-5.006,11.606-5.006c4.84,0,8.923,1.688,12.136,5.016
		C-295.424,173.974-293.791,178.224-293.791,183.265z"/>
</g>
<g>
	<g>
		<path fill="#223F84" d="M351.234-281.974c1.988,3.053,4.199,5.941,6.611,8.648c-0.838-3.287-1.471-6.656-1.926-10.08
			C354.375-282.886,352.814-282.407,351.234-281.974"/>
		<path fill="#223F84" d="M355.135-294.966c0-7.369,0.926-14.521,2.646-21.357c-2.426-0.203-4.871-0.33-7.352-0.33
			c-3.633,0-7.205,0.248-10.723,0.678c0.949,12.488,5.051,24.086,11.527,34.006c1.58-0.438,3.141-0.916,4.686-1.436
			C355.422-287.19,355.135-291.042,355.135-294.966"/>
		<g>
			<path fill="#223F84" d="M442.256-382.083c3.529,0,7,0.232,10.424,0.639c-11.611-7.908-25.635-12.539-40.746-12.539
				c-0.436,0-0.869,0.025-1.309,0.035c1.789,5.266,3.082,10.754,3.832,16.42C423.191-380.47,432.529-382.083,442.256-382.083"/>
			<path fill="#A0DBEB" d="M414.457-377.528c0.125,0.939,0.258,1.875,0.352,2.82c33.045,12.377,56.574,44.236,56.574,81.602
				c0,4.064-0.299,8.055-0.838,11.969c0.195,0.469,0.371,0.945,0.559,1.414c8.361-11.811,13.291-26.227,13.291-41.799
				c0-24.91-12.574-46.879-31.717-59.92c-3.422-0.408-6.893-0.645-10.422-0.645C432.533-382.087,423.191-380.47,414.457-377.528"/>
			<path fill="#3BC0DD" d="M471.104-279.724c-0.188-0.469-0.361-0.945-0.559-1.414c-0.131,0.945-0.275,1.883-0.438,2.814
				C470.449-278.778,470.771-279.253,471.104-279.724"/>
			<path fill="#223F84" d="M367.271-378.558c5.498-1.086,11.174-1.67,16.99-1.67"/>
			<path fill="#223F84" d="M384.262-380.228c9.197,0,18.061,1.438,26.387,4.082c1.256-0.492,2.525-0.951,3.809-1.383
				c-0.75-5.666-2.043-11.154-3.828-16.422c-16.348,0.289-31.367,5.988-43.357,15.393"/>
			<path fill="#A0DBEB" d="M414.457-377.528c-1.283,0.432-2.553,0.889-3.809,1.381c1.404,0.445,2.789,0.928,4.16,1.439
				C414.715-375.653,414.582-376.589,414.457-377.528"/>
			<path fill="#6BCCE2" d="M408.588-332.538c28.039,6.021,51.066,25.52,61.957,51.4c0.539-3.916,0.838-7.906,0.838-11.969
				c0-37.363-23.529-69.225-56.572-81.6c0.281,2.875,0.434,5.785,0.434,8.732C415.244-354.126,412.871-342.837,408.588-332.538"/>
			<path fill="#3BC0DD" d="M408.588-332.538c-4.063,9.766-9.857,18.625-16.994,26.213c20.766,11.156,36.465,30.49,42.836,53.684
				c14.404-4.701,26.824-13.777,35.68-25.682c0.158-0.932,0.305-1.871,0.436-2.814C459.654-307.019,436.627-326.517,408.588-332.538
				"/>
			<path fill="#2C95C1" d="M411.934-249.063c7.855,0,15.414-1.266,22.496-3.578c-6.371-23.195-22.07-42.529-42.836-53.684
				c-9.719,10.334-21.926,18.291-35.674,22.92c0.455,3.424,1.088,6.795,1.926,10.082
				C371.117-258.446,390.428-249.063,411.934-249.063"/>
			<path fill="#1E68A5" d="M367.271-378.562c-16.916,13.268-27.799,33.875-27.799,57.041"/>
			<path fill="#1E68A5" d="M339.473-321.521c0,1.098,0.037,2.191,0.086,3.281c6.945-4.975,14.652-8.951,22.914-11.725
				c9.266-21.088,26.637-37.789,48.176-46.184c-8.324-2.645-17.188-4.08-26.389-4.08c-5.814,0-11.49,0.584-16.988,1.666"/>
			<path fill="#27BADA" d="M350.43-316.653c2.48,0,4.928,0.127,7.354,0.33c1.189-4.711,2.77-9.27,4.689-13.643
				c-8.262,2.775-15.969,6.752-22.914,11.725c0.033,0.76,0.09,1.514,0.148,2.266C343.225-316.405,346.797-316.653,350.43-316.653"/>
			<path fill="#33B1D3" d="M362.473-329.964c8.717-2.928,18.035-4.535,27.736-4.535c6.307,0,12.453,0.684,18.379,1.959
				c4.281-10.295,6.656-21.586,6.656-33.434c0-2.947-0.152-5.859-0.434-8.734c-1.373-0.512-2.76-0.994-4.162-1.439
				C389.109-367.755,371.738-351.05,362.473-329.964"/>
			<path fill="#217DB8" d="M391.594-306.325c7.137-7.588,12.932-16.447,16.994-26.215c-5.926-1.275-12.072-1.959-18.379-1.959
				c-9.699,0-19.02,1.607-27.736,4.535c-1.92,4.373-3.5,8.93-4.691,13.641C369.932-315.308,381.375-311.815,391.594-306.325"/>
			<path fill="#33B1D3" d="M355.135-294.966c0,3.924,0.287,7.775,0.785,11.561c13.748-4.627,25.955-12.582,35.674-22.918
				c-10.219-5.49-21.662-8.986-33.813-10C356.061-309.487,355.135-302.335,355.135-294.966"/>
		</g>
	</g>
	<g>
		<path fill="#233F84" d="M-189.854-398.102c0.888,0,1.765,0.058,2.629,0.16c-2.932-1.997-6.465-3.166-10.278-3.166
			c-0.11,0-0.221,0.007-0.33,0.011c0.449,1.329,0.777,2.713,0.968,4.142C-194.663-397.696-192.308-398.102-189.854-398.102"/>
		<path fill="#ABDBEB" d="M-196.865-396.955c0.03,0.24,0.063,0.471,0.087,0.711c8.336,3.123,14.271,11.16,14.271,20.582
			c0,1.027-0.076,2.032-0.211,3.02c0.053,0.118,0.091,0.243,0.14,0.36c2.11-2.98,3.354-6.616,3.354-10.545
			c0-6.285-3.173-11.824-8-15.114c-0.864-0.107-1.737-0.164-2.629-0.164C-192.304-398.105-194.662-397.696-196.865-396.955"/>
		<path fill="#4CBFDC" d="M-182.576-372.282c-0.048-0.117-0.092-0.242-0.143-0.36c-0.033,0.243-0.067,0.478-0.11,0.714
			C-182.743-372.047-182.66-372.165-182.576-372.282"/>
		<path fill="#233F84" d="M-204.483-397.636c2.322,0,4.558,0.364,6.66,1.03c0.314-0.125,0.632-0.242,0.958-0.353
			c-0.188-1.426-0.516-2.81-0.967-4.139c-4.123,0.071-7.911,1.508-10.936,3.883C-207.386-397.492-205.952-397.636-204.483-397.636"
			/>
		<path fill="#ABDBEB" d="M-196.865-396.955c-0.322,0.111-0.644,0.225-0.961,0.348c0.354,0.112,0.703,0.233,1.048,0.363
			C-196.803-396.484-196.835-396.715-196.865-396.955"/>
		<path fill="#233F84" d="M-212.814-372.85c0.499,0.768,1.058,1.497,1.665,2.181c-0.211-0.83-0.37-1.682-0.483-2.545
			C-212.02-373.082-212.415-372.959-212.814-372.85"/>
		<path fill="#7BCAE3" d="M-198.349-385.607c7.074,1.522,12.883,6.438,15.63,12.969c0.136-0.987,0.213-1.996,0.213-3.023
			c0-9.425-5.937-17.459-14.273-20.582c0.076,0.726,0.11,1.457,0.11,2.202C-196.669-391.055-197.268-388.203-198.349-385.607"/>
		<path fill="#4CBFDC" d="M-198.349-385.607c-1.025,2.463-2.484,4.698-4.287,6.613c5.239,2.815,9.198,7.688,10.807,13.545
			c3.632-1.187,6.769-3.479,9-6.479c0.043-0.236,0.077-0.475,0.11-0.71C-185.466-379.17-191.274-384.085-198.349-385.607"/>
		<path fill="#2C95C1" d="M-197.502-364.547c1.981,0,3.888-0.321,5.676-0.902c-1.608-5.856-5.57-10.729-10.807-13.545
			c-2.453,2.605-5.531,4.616-9.001,5.785c0.115,0.858,0.274,1.71,0.485,2.54C-207.799-366.918-202.931-364.547-197.502-364.547"/>
		<path fill="#1E68A5" d="M-215.779-382.827c0,0.274,0.008,0.556,0.02,0.827c1.752-1.251,3.694-2.257,5.779-2.955
			c2.339-5.322,6.722-9.536,12.154-11.65c-2.1-0.67-4.338-1.033-6.656-1.033c-1.468,0-2.898,0.149-4.289,0.425
			C-213.038-393.87-215.779-388.673-215.779-382.827"/>
		<path fill="#23B9DA" d="M-213.02-381.598c0.628,0,1.245,0.032,1.855,0.083c0.302-1.191,0.698-2.339,1.184-3.44
			c-2.084,0.698-4.025,1.704-5.779,2.955c0.006,0.192,0.022,0.382,0.037,0.573C-214.838-381.536-213.936-381.598-213.02-381.598"/>
		<path fill="#233F84" d="M-211.83-376.129c0-1.857,0.233-3.664,0.666-5.386c-0.609-0.051-1.227-0.083-1.854-0.083
			c-0.916,0-1.816,0.062-2.703,0.168c0.236,3.154,1.272,6.078,2.906,8.58c0.399-0.109,0.795-0.232,1.182-0.364
			C-211.759-374.168-211.83-375.138-211.83-376.129"/>
		<path fill="#33B1D3" d="M-209.98-384.955c2.199-0.741,4.549-1.148,6.997-1.148c1.593,0,3.14,0.179,4.635,0.496
			c1.082-2.599,1.681-5.443,1.681-8.431c0-0.745-0.035-1.48-0.11-2.206c-0.348-0.13-0.694-0.251-1.048-0.363
			C-203.259-394.487-207.642-390.274-209.98-384.955"/>
		<path fill="#1E7CB8" d="M-202.636-378.994c1.803-1.915,3.265-4.15,4.287-6.613c-1.495-0.317-3.042-0.491-4.635-0.491
			c-2.448,0-4.798,0.402-6.997,1.14c-0.483,1.105-0.884,2.257-1.184,3.444C-208.096-381.262-205.212-380.378-202.636-378.994"/>
		<path fill="#33B1D3" d="M-211.83-376.129c0,0.991,0.071,1.961,0.197,2.915c3.467-1.168,6.549-3.172,8.997-5.78
			c-2.576-1.384-5.462-2.261-8.528-2.521C-211.597-379.793-211.83-377.986-211.83-376.129"/>
		<g>
			<defs>
				<path id="SVGID_4_" d="M-209.201-259.84h23.312v-92.897h-23.312V-259.84z M-452.534-286.658
					c-4.759-5.005-7.14-11.55-7.14-19.635c0-7.854,2.411-14.296,7.228-19.338c4.817-5.036,10.849-7.556,18.088-7.556
					c7.414,0,13.499,2.49,18.259,7.472c4.763,4.979,7.145,11.452,7.145,19.422c0,7.971-2.426,14.487-7.271,19.556
					c-4.847,5.063-10.92,7.593-18.215,7.593C-441.741-279.145-447.773-281.646-452.534-286.658 M-466.93-342.495
					c-10.646,9.679-15.965,21.774-15.965,36.288c0,13.546,4.706,25.061,14.127,34.534c9.424,9.479,20.794,14.223,34.109,14.223
					c9.052,0,17.334-2.155,24.848-6.454c7.513-4.299,13.448-10.258,17.801-17.877c4.352-7.636,6.532-15.828,6.532-24.598
					c0-8.703-2.166-16.816-6.489-24.335c-4.327-7.511-10.343-13.456-18.057-17.842c-7.712-4.381-15.954-6.576-24.717-6.576
					C-446.865-355.132-457.598-350.919-466.93-342.495 M-341.436-286.443c-4.841-5.092-7.257-11.765-7.257-20.021
					c0-8.084,2.416-14.628,7.257-19.641c4.836-5.005,10.927-7.507,18.269-7.507c7.286,0,13.321,2.542,18.104,7.639
					c4.782,5.098,7.173,11.626,7.173,19.594c0,8.028-2.435,14.63-7.303,19.806c-4.867,5.185-10.856,7.77-17.974,7.77
					C-330.509-278.804-336.6-281.347-341.436-286.443 M-334.012-351.97c-4.894,2.106-9.444,5.265-13.66,9.475v-10.245h-23.135
					v126.88h23.135v-43.803c4.556,4.326,9.137,7.441,13.749,9.345c4.607,1.912,9.592,2.868,14.941,2.868
					c12.009,0,22.396-4.657,31.166-13.967c8.765-9.303,13.146-20.873,13.146-34.704c0-14.344-4.241-26.1-12.72-35.266
					c-8.482-9.161-18.786-13.745-30.908-13.745C-323.881-355.132-329.114-354.077-334.012-351.97 M-74.164-350.862
					c-5.379,2.846-9.923,7.002-13.623,12.467c-2.85-5.465-6.609-9.621-11.279-12.467c-4.671-2.844-9.911-4.27-15.72-4.27
					c-5.758,0-11.067,1.083-15.937,3.243c-4.873,2.164-9.301,5.439-13.286,9.824v-10.676h-23.309v92.9h23.309v-41.327
					c0-8.938,0.787-15.487,2.351-19.641c1.569-4.152,3.942-7.386,7.104-9.692c3.166-2.302,6.688-3.454,10.57-3.454
					c3.48,0,6.447,0.909,8.901,2.727c2.453,1.825,4.294,4.599,5.52,8.325c1.226,3.735,1.842,9.753,1.842,18.064v44.998h23.476
					v-41.926c0-8.882,0.772-15.326,2.31-19.34c1.537-4.011,3.885-7.158,7.043-9.437c3.158-2.274,6.731-3.412,10.716-3.412
					c5.232,0,9.161,1.861,11.785,5.59c2.616,3.729,3.927,10.858,3.927,21.387v47.138h23.476v-54.479
					c0-11.154-1.095-19.208-3.289-24.162c-2.194-4.949-5.8-8.966-10.81-12.039s-10.82-4.612-17.428-4.612
					C-62.896-355.132-68.774-353.706-74.164-350.862 M19.07-286.573c-4.848-5.176-7.276-11.777-7.276-19.806
					c0-7.968,2.384-14.496,7.151-19.594c4.761-5.097,10.749-7.639,17.953-7.639c7.373,0,13.472,2.502,18.296,7.507
					c4.822,5.013,7.236,11.557,7.236,19.641c0,8.256-2.414,14.929-7.236,20.021c-4.824,5.097-10.892,7.64-18.213,7.64
					C29.891-278.804,23.919-281.389,19.07-286.573 M1.279-341.387c-8.472,9.166-12.708,20.922-12.708,35.266
					c0,13.831,4.38,25.401,13.135,34.704c8.753,9.31,19.128,13.967,31.126,13.967c5.34,0,10.305-0.956,14.88-2.868
					c4.576-1.903,9.143-5.019,13.691-9.345v9.823H84.71v-92.9H61.403v10.245c-4.149-4.21-8.676-7.368-13.561-9.475
					c-4.891-2.107-10.12-3.162-15.692-3.162C20.041-355.132,9.748-350.548,1.279-341.387 M-256.929-386.979v34.239h-11.952v20.066
					h11.952v72.834h23.309v-72.834h13.835v-20.066h-13.835v-34.239H-256.929z M102.219-259.84h23.307v-128.758h-23.307V-259.84z"/>
			</defs>
			<clipPath id="SVGID_5_">
				<use xlink:href="#SVGID_4_"  overflow="visible"/>
			</clipPath>
			
				<linearGradient id="SVGID_6_" gradientUnits="userSpaceOnUse" x1="307.4785" y1="522.5576" x2="310.4438" y2="522.5576" gradientTransform="matrix(205.1697 0 0 -205.1697 -63568.1016 106905.8516)">
				<stop  offset="0" style="stop-color:#233F83"/>
				<stop  offset="1" style="stop-color:#25B9DA"/>
			</linearGradient>
			<rect x="-482.895" y="-388.598" clip-path="url(#SVGID_5_)" fill="url(#SVGID_6_)" width="608.42" height="162.737"/>
		</g>
	</g>
	<path fill="#223F84" d="M214.455-328.78c5.511-3.055,9.846-6.939,12.904-11.57c3.453-5.229,5.204-11.084,5.204-17.408
		c0-10.158-3.987-19.053-11.852-26.438c-7.849-7.367-17.694-11.102-29.266-11.102c-12.966,0-23.885,4.475-32.454,13.301
		c-5.917,6.102-9.662,14.201-11.129,24.074l-0.342,2.293h27.198l0.471-1.336c1.103-3.133,3.034-5.744,5.741-7.76
		c2.884-2.15,6.137-3.24,9.667-3.24c3.985,0,7.24,1.16,9.674,3.449c2.415,2.273,3.641,5.18,3.641,8.641
		c0,2.672-0.814,5.242-2.418,7.637c-1.62,2.412-3.926,4.338-6.853,5.727c-2.879,1.367-7.105,2.283-12.92,2.799l-1.823,0.162v24.479
		l1.948,0.051c9.556,0.248,16.98,2.418,22.067,6.453c5.185,4.111,7.813,9.201,7.813,15.131c0,5.406-1.942,10.045-5.772,13.787
		c-3.836,3.746-8.75,5.646-14.604,5.646c-5.619,0-10.32-1.672-13.974-4.967c-3.521-3.18-5.888-8.08-7.033-14.568l-0.292-1.652
		h-28.001l0.157,2.146c1.004,13.688,5.771,24.713,14.171,32.77c8.629,8.277,19.919,12.475,33.559,12.475
		c14.382,0,26.399-4.447,35.719-13.221c9.331-8.787,14.063-19.662,14.063-32.322c0-8.658-2.461-16.291-7.313-22.688
		C227.998-321.845,221.967-326.124,214.455-328.78z"/>
	<path fill="#223F84" d="M322.883-324.085c-8-8.182-17.761-12.516-29.034-12.893l23.976-46.529l-24.252-12.129l-36.044,70.563
		c-4.655,8.994-7.675,15.771-8.974,20.143c-1.307,4.402-1.97,8.838-1.97,13.186c0,11.453,4.291,21.746,12.754,30.592
		c8.477,8.859,19.223,13.352,31.94,13.352c12.145,0,22.664-4.328,31.266-12.863c8.6-8.537,12.961-19.09,12.961-31.361
		C335.506-304.729,331.258-315.517,322.883-324.085z M307.703-292.403c0,5.164-1.679,9.49-4.989,12.859
		c-3.304,3.363-7.309,5.068-11.903,5.068c-4.341,0-8.202-1.732-11.475-5.152c-3.283-3.43-4.948-7.729-4.948-12.775
		c0-5.051,1.588-9.305,4.721-12.641c3.114-3.322,7.019-5.006,11.606-5.006c4.84,0,8.923,1.688,12.136,5.016
		C306.07-301.694,307.703-297.444,307.703-292.403z"/>
</g>
<g>
	<g>
		<path fill="#233F84" d="M282.916,87.811c0.739,0,1.469,0.048,2.188,0.133c-2.44-1.662-5.381-2.635-8.556-2.635
			c-0.092,0-0.184,0.005-0.274,0.009c0.374,1.106,0.647,2.258,0.805,3.447C278.913,88.147,280.874,87.811,282.916,87.811"/>
		<path fill="#ABDBEB" d="M277.08,88.765c0.025,0.2,0.052,0.392,0.073,0.592c6.938,2.6,11.878,9.289,11.878,17.132
			c0,0.854-0.063,1.691-0.175,2.513c0.043,0.099,0.075,0.203,0.116,0.3c1.756-2.48,2.792-5.507,2.792-8.776
			c0-5.231-2.641-9.843-6.659-12.581c-0.72-0.089-1.446-0.137-2.188-0.137C280.876,87.807,278.914,88.147,277.08,88.765"/>
		<path fill="#4CBFDC" d="M288.974,109.301c-0.04-0.097-0.077-0.201-0.119-0.3c-0.028,0.203-0.056,0.397-0.092,0.595
			C288.834,109.497,288.903,109.398,288.974,109.301"/>
		<path fill="#233F84" d="M270.739,88.198c1.933,0,3.793,0.303,5.543,0.857c0.262-0.104,0.526-0.202,0.797-0.294
			c-0.157-1.187-0.429-2.338-0.805-3.444c-3.432,0.06-6.585,1.255-9.102,3.231C268.323,88.317,269.516,88.198,270.739,88.198"/>
		<path fill="#ABDBEB" d="M277.08,88.765c-0.268,0.093-0.536,0.187-0.8,0.289c0.294,0.094,0.585,0.194,0.873,0.303
			C277.132,89.156,277.105,88.965,277.08,88.765"/>
		<path fill="#233F84" d="M263.804,108.829c0.416,0.639,0.88,1.246,1.386,1.815c-0.175-0.691-0.308-1.4-0.402-2.119
			C264.466,108.636,264.137,108.738,263.804,108.829"/>
		<path fill="#7BCAE3" d="M275.845,98.21c5.888,1.267,10.723,5.358,13.01,10.795c0.113-0.822,0.177-1.662,0.177-2.517
			c0-7.846-4.941-14.532-11.88-17.132c0.063,0.604,0.092,1.213,0.092,1.833C277.243,93.676,276.745,96.049,275.845,98.21"/>
		<path fill="#4CBFDC" d="M275.845,98.21c-0.854,2.05-2.068,3.91-3.568,5.505c4.361,2.343,7.656,6.399,8.995,11.273
			c3.023-0.987,5.634-2.895,7.491-5.393c0.036-0.197,0.064-0.396,0.092-0.591C286.568,103.568,281.733,99.477,275.845,98.21"/>
		<path fill="#2C95C1" d="M276.55,115.74c1.649,0,3.236-0.268,4.724-0.752c-1.338-4.874-4.636-8.931-8.995-11.273
			c-2.042,2.168-4.604,3.842-7.492,4.815c0.096,0.714,0.229,1.423,0.404,2.114C267.979,113.767,272.031,115.74,276.55,115.74"/>
		<path fill="#1E68A5" d="M261.336,100.524c0,0.228,0.006,0.462,0.016,0.688c1.458-1.042,3.075-1.879,4.811-2.46
			c1.947-4.431,5.595-7.938,10.117-9.697c-1.748-0.558-3.61-0.86-5.54-0.86c-1.222,0-2.413,0.125-3.57,0.354
			C263.618,91.332,261.336,95.658,261.336,100.524"/>
		<path fill="#23B9DA" d="M263.634,101.548c0.522,0,1.036,0.026,1.544,0.068c0.251-0.991,0.582-1.946,0.985-2.863
			c-1.734,0.581-3.351,1.418-4.811,2.46c0.005,0.16,0.019,0.317,0.031,0.477C262.12,101.599,262.871,101.548,263.634,101.548"/>
		<path fill="#233F84" d="M264.624,106.1c0-1.546,0.194-3.05,0.554-4.483c-0.507-0.042-1.021-0.068-1.542-0.068
			c-0.763,0-1.512,0.051-2.25,0.14c0.197,2.625,1.059,5.059,2.419,7.142c0.333-0.091,0.662-0.193,0.983-0.304
			C264.683,107.731,264.624,106.925,264.624,106.1"/>
		<path fill="#33B1D3" d="M266.163,98.753c1.831-0.617,3.786-0.956,5.824-0.956c1.326,0,2.613,0.148,3.858,0.413
			c0.9-2.163,1.399-4.531,1.399-7.018c0-0.62-0.029-1.232-0.092-1.836c-0.29-0.108-0.578-0.209-0.873-0.303
			C271.758,90.818,268.11,94.325,266.163,98.753"/>
		<path fill="#1E7CB8" d="M272.277,103.715c1.5-1.595,2.717-3.455,3.568-5.505c-1.245-0.265-2.532-0.409-3.858-0.409
			c-2.038,0-3.994,0.335-5.824,0.949c-0.402,0.92-0.735,1.878-0.985,2.866C267.732,101.827,270.132,102.563,272.277,103.715"/>
		<path fill="#33B1D3" d="M264.624,106.1c0,0.825,0.06,1.632,0.164,2.426c2.886-0.972,5.451-2.64,7.489-4.811
			c-2.145-1.152-4.546-1.882-7.099-2.099C264.818,103.05,264.624,104.554,264.624,106.1"/>
		<g>
			<defs>
				<path id="SVGID_7_" d="M266.812,202.894h19.403v-77.324h-19.403V202.894z M64.271,180.571
					c-3.961-4.166-5.943-9.613-5.943-16.343c0-6.538,2.007-11.899,6.016-16.097c4.01-4.191,9.03-6.289,15.056-6.289
					c6.171,0,11.236,2.073,15.198,6.22c3.964,4.145,5.947,9.532,5.947,16.166s-2.019,12.059-6.052,16.277
					c-4.034,4.214-9.089,6.319-15.161,6.319C73.254,186.825,68.233,184.744,64.271,180.571 M52.289,134.095
					C43.428,142.151,39,152.219,39,164.3c0,11.274,3.917,20.859,11.759,28.746c7.844,7.889,17.308,11.838,28.391,11.838
					c7.535,0,14.428-1.795,20.683-5.373c6.253-3.578,11.193-8.537,14.816-14.88c3.622-6.355,5.437-13.175,5.437-20.475
					c0-7.244-1.803-13.997-5.401-20.255c-3.602-6.252-8.609-11.2-15.029-14.851c-6.419-3.646-13.28-5.475-20.573-5.475
					C68.989,123.576,60.056,127.083,52.289,134.095 M156.745,180.75c-4.029-4.238-6.041-9.792-6.041-16.664
					c0-6.729,2.011-12.176,6.041-16.348c4.025-4.166,9.095-6.249,15.206-6.249c6.064,0,11.088,2.116,15.068,6.358
					c3.981,4.243,5.971,9.677,5.971,16.309c0,6.683-2.026,12.178-6.079,16.486c-4.051,4.314-9.037,6.467-14.96,6.467
					C165.84,187.109,160.771,184.992,156.745,180.75 M162.924,126.209c-4.073,1.753-7.861,4.382-11.37,7.886v-8.527h-19.256v105.609
					h19.256v-36.459c3.792,3.602,7.605,6.193,11.444,7.779c3.835,1.59,7.984,2.387,12.437,2.387c9.996,0,18.642-3.877,25.941-11.625
					c7.295-7.744,10.942-17.375,10.942-28.888c0-11.939-3.53-21.725-10.587-29.354c-7.061-7.626-15.637-11.441-25.727-11.441
					C171.357,123.576,167.001,124.454,162.924,126.209 M379.211,127.13c-4.477,2.369-8.259,5.829-11.339,10.377
					c-2.372-4.548-5.501-8.008-9.388-10.377c-3.888-2.366-8.25-3.554-13.084-3.554c-4.793,0-9.212,0.901-13.265,2.7
					c-4.056,1.801-7.742,4.527-11.059,8.177v-8.886h-19.401v77.326h19.401v-34.398c0-7.439,0.655-12.892,1.957-16.349
					c1.307-3.456,3.282-6.147,5.914-8.067c2.635-1.916,5.567-2.875,8.798-2.875c2.897,0,5.367,0.757,7.409,2.27
					c2.042,1.52,3.574,3.827,4.594,6.93c1.021,3.109,1.533,8.118,1.533,15.036v37.454h19.54v-34.897
					c0-7.393,0.643-12.757,1.922-16.098c1.28-3.338,3.234-5.958,5.862-7.854c2.629-1.893,5.603-2.84,8.919-2.84
					c4.355,0,7.625,1.549,9.81,4.652c2.178,3.104,3.269,9.038,3.269,17.802v39.235h19.54v-45.346c0-9.284-0.911-15.987-2.738-20.111
					c-1.826-4.119-4.827-7.463-8.997-10.021c-4.17-2.559-9.006-3.84-14.506-3.84C388.59,123.576,383.698,124.764,379.211,127.13
					 M456.816,180.643c-4.035-4.309-6.057-9.804-6.057-16.486c0-6.632,1.984-12.065,5.952-16.309
					c3.963-4.242,8.947-6.358,14.944-6.358c6.137,0,11.213,2.083,15.229,6.249c4.014,4.172,6.023,9.619,6.023,16.348
					c0,6.872-2.009,12.426-6.023,16.664c-4.015,4.242-9.065,6.359-15.16,6.359C465.823,187.109,460.852,184.957,456.816,180.643
					 M442.008,135.018c-7.052,7.629-10.578,17.414-10.578,29.354c0,11.513,3.646,21.144,10.933,28.888
					c7.286,7.748,15.921,11.625,25.908,11.625c4.445,0,8.577-0.797,12.385-2.387c3.809-1.586,7.61-4.178,11.396-7.779v8.176h19.399
					v-77.326h-19.399v8.527c-3.454-3.504-7.222-6.133-11.288-7.886c-4.071-1.755-8.423-2.633-13.062-2.633
					C457.624,123.576,449.057,127.392,442.008,135.018 M227.085,97.067v28.5h-9.949v16.702h9.949v60.624h19.401V142.27h11.516
					v-16.702h-11.516v-28.5H227.085z M526.026,202.894h19.399V95.721h-19.399V202.894z"/>
			</defs>
			<clipPath id="SVGID_8_">
				<use xlink:href="#SVGID_7_"  overflow="visible"/>
			</clipPath>
			
				<linearGradient id="SVGID_9_" gradientUnits="userSpaceOnUse" x1="310.022" y1="520.2637" x2="312.4902" y2="520.2637" gradientTransform="matrix(205.1697 0 0 -205.1697 -63568.1016 106905.8516)">
				<stop  offset="0" style="stop-color:#233F83"/>
				<stop  offset="1" style="stop-color:#25B9DA"/>
			</linearGradient>
			<rect x="39" y="95.721" clip-path="url(#SVGID_8_)" fill="url(#SVGID_9_)" width="506.425" height="135.456"/>
		</g>
	</g>
	<g>
		<g>
			<path fill="#223F84" d="M845.684,207.274c2.691,4.134,5.685,8.043,8.949,11.709c-1.134-4.449-1.99-9.011-2.606-13.646
				C849.936,206.04,847.822,206.688,845.684,207.274"/>
			<path fill="#223F84" d="M850.963,189.686c0-9.976,1.254-19.657,3.583-28.913c-3.284-0.273-6.594-0.446-9.952-0.446
				c-4.917,0-9.754,0.337-14.516,0.918c1.284,16.907,6.838,32.607,15.605,46.037c2.139-0.593,4.252-1.241,6.343-1.944
				C851.352,200.213,850.963,194.999,850.963,189.686"/>
			<g>
				<path fill="#223F84" d="M968.904,71.751c4.777,0,9.476,0.315,14.111,0.864c-15.719-10.705-34.703-16.975-55.16-16.975
					c-0.59,0-1.177,0.034-1.771,0.048c2.421,7.128,4.172,14.559,5.187,22.229C943.096,73.935,955.736,71.751,968.904,71.751"/>
				<path fill="#A0DBEB" d="M931.271,77.917c0.17,1.271,0.35,2.538,0.477,3.818c44.734,16.756,76.588,59.885,76.588,110.469
					c0,5.501-0.404,10.903-1.135,16.203c0.265,0.634,0.503,1.279,0.757,1.912c11.318-15.987,17.992-35.504,17.992-56.584
					c0-33.723-17.022-63.463-42.937-81.116c-4.633-0.553-9.331-0.874-14.108-0.874C955.742,71.745,943.096,73.935,931.271,77.917"/>
				<path fill="#3BC0DD" d="M1007.957,210.319c-0.254-0.633-0.489-1.278-0.757-1.912c-0.177,1.279-0.373,2.548-0.592,3.81
					C1007.07,211.601,1007.507,210.957,1007.957,210.319"/>
				<path fill="#223F84" d="M867.394,76.523c7.442-1.471,15.126-2.261,23.001-2.261"/>
				<path fill="#223F84" d="M890.395,74.263c12.45,0,24.449,1.946,35.721,5.526c1.7-0.666,3.419-1.287,5.155-1.872
					c-1.015-7.67-2.766-15.101-5.182-22.232c-22.131,0.392-42.464,8.107-58.695,20.838"/>
				<path fill="#A0DBEB" d="M931.271,77.917c-1.736,0.585-3.455,1.203-5.155,1.869c1.9,0.604,3.775,1.257,5.632,1.949
					C931.62,80.455,931.44,79.188,931.271,77.917"/>
				<path fill="#6BCCE2" d="M923.325,138.823c37.958,8.151,69.132,34.546,83.875,69.584c0.73-5.302,1.135-10.704,1.135-16.203
					c0-50.582-31.854-93.713-76.586-110.467c0.382,3.893,0.588,7.832,0.588,11.821C932.337,109.598,929.125,124.881,923.325,138.823
					"/>
				<path fill="#3BC0DD" d="M923.325,138.823c-5.499,13.22-13.344,25.213-23.006,35.486c28.111,15.104,49.365,41.274,57.99,72.675
					c19.5-6.366,36.313-18.652,48.302-34.768c0.214-1.262,0.412-2.532,0.589-3.81C992.457,173.369,961.283,146.975,923.325,138.823"
					/>
				<path fill="#2C95C1" d="M927.855,251.827c10.634,0,20.866-1.713,30.454-4.843c-8.625-31.402-29.879-57.576-57.99-72.675
					c-13.156,13.989-29.682,24.762-48.293,31.027c0.616,4.636,1.473,9.199,2.606,13.648
					C872.6,239.126,898.741,251.827,927.855,251.827"/>
				<path fill="#1E68A5" d="M867.394,76.519c-22.9,17.96-37.633,45.857-37.633,77.219"/>
				<path fill="#1E68A5" d="M829.761,153.737c0,1.486,0.051,2.967,0.116,4.442c9.402-6.735,19.836-12.118,31.021-15.872
					c12.543-28.548,36.06-51.157,65.218-62.521c-11.269-3.58-23.268-5.523-35.724-5.523c-7.872,0-15.556,0.79-22.998,2.256"/>
				<path fill="#27BADA" d="M844.594,160.326c3.358,0,6.672,0.173,9.955,0.446c1.61-6.377,3.749-12.548,6.349-18.467
					c-11.185,3.756-21.618,9.139-31.021,15.871c0.045,1.029,0.122,2.05,0.201,3.067C834.84,160.663,839.677,160.326,844.594,160.326
					"/>
				<path fill="#33B1D3" d="M860.897,142.308c11.8-3.963,24.415-6.14,37.548-6.14c8.537,0,16.858,0.926,24.88,2.651
					c5.796-13.936,9.012-29.222,9.012-45.261c0-3.989-0.206-7.932-0.588-11.823c-1.858-0.692-3.735-1.346-5.634-1.949
					C896.957,91.147,873.44,113.762,860.897,142.308"/>
				<path fill="#217DB8" d="M900.319,174.31c9.662-10.273,17.507-22.267,23.006-35.49c-8.021-1.726-16.343-2.651-24.88-2.651
					c-13.13,0-25.748,2.177-37.548,6.14c-2.6,5.92-4.738,12.088-6.352,18.465C870.995,162.148,886.486,166.877,900.319,174.31"/>
				<path fill="#33B1D3" d="M850.963,189.686c0,5.313,0.389,10.527,1.063,15.651c18.611-6.264,35.137-17.034,48.293-31.025
					c-13.833-7.433-29.324-12.165-45.773-13.539C852.217,170.028,850.963,179.71,850.963,189.686"/>
			</g>
		</g>
		<path fill="#223F84" d="M660.518,143.909c7.461-4.135,13.328-9.394,17.47-15.663c4.675-7.078,7.045-15.005,7.045-23.566
			c0-13.751-5.397-25.793-16.044-35.79c-10.625-9.973-23.953-15.029-39.618-15.029c-17.554,0-32.334,6.058-43.936,18.006
			c-8.01,8.261-13.08,19.225-15.066,32.591l-0.462,3.104h36.82l0.637-1.809c1.493-4.24,4.107-7.775,7.771-10.504
			c3.904-2.911,8.308-4.387,13.087-4.387c5.396,0,9.802,1.57,13.097,4.669c3.269,3.078,4.928,7.013,4.928,11.698
			c0,3.616-1.103,7.096-3.272,10.338c-2.193,3.266-5.314,5.872-9.276,7.752c-3.897,1.852-9.619,3.091-17.49,3.789l-2.47,0.219
			v33.139l2.638,0.069c12.937,0.335,22.988,3.272,29.874,8.735c7.02,5.565,10.578,12.456,10.578,20.484
			c0,7.318-2.63,13.597-7.814,18.664c-5.193,5.07-11.846,7.643-19.77,7.643c-7.606,0-13.972-2.262-18.917-6.723
			c-4.767-4.306-7.971-10.938-9.521-19.722l-0.396-2.236h-37.906l0.213,2.905c1.359,18.529,7.813,33.454,19.184,44.362
			c11.682,11.204,26.965,16.888,45.43,16.888c19.47,0,35.739-6.021,48.355-17.898c12.631-11.896,19.037-26.618,19.037-43.756
			c0-11.721-3.332-22.055-9.901-30.714C678.853,153.299,670.687,147.506,660.518,143.909z"/>
		<path fill="#223F84" d="M807.303,150.267c-10.831-11.076-24.044-16.943-39.306-17.453l32.457-62.99l-32.832-16.42l-48.794,95.524
			c-6.302,12.177-10.39,21.353-12.147,27.269c-1.77,5.959-2.667,11.965-2.667,17.85c0,15.505,5.81,29.439,17.266,41.414
			c11.476,11.994,26.022,18.076,43.24,18.076c16.439,0,30.681-5.859,42.325-17.415c11.642-11.556,17.546-25.842,17.546-42.454
			C824.391,176.47,818.64,161.865,807.303,150.267z M786.753,193.156c0,6.99-2.273,12.848-6.754,17.407
			c-4.473,4.553-9.895,6.861-16.115,6.861c-5.876,0-11.104-2.345-15.534-6.974c-4.443-4.644-6.697-10.463-6.697-17.295
			c0-6.838,2.149-12.598,6.39-17.112c4.216-4.498,9.502-6.776,15.713-6.776c6.552,0,12.079,2.283,16.429,6.789
			C784.542,180.578,786.753,186.331,786.753,193.156z"/>
	</g>
</g>
</svg>
