<svg width="545" height="529" viewBox="0 0 545 529" fill="none" xmlns="http://www.w3.org/2000/svg">
<g id="Group">
<path id="Vector" opacity="0.03" d="M211.444 322.328C172.313 324.891 131.536 327.272 95.5136 311.889C57.2967 295.59 30.5997 261.161 15.9712 223.253C2.98841 190.106 2.43985 152.38 9.75409 117.585C13.0455 101.652 18.3483 85.903 28.4054 73.0837C68.6338 21.4403 129.342 1.29566 193.159 -3.09953C223.879 -5.29713 256.976 -4.93086 282.21 12.6499C305.432 28.9487 316.952 56.7849 327.558 83.1561C334.872 101.652 342.186 122.896 333.592 140.843C320.427 167.763 280.381 169.228 262.096 193.036C243.993 216.294 254.05 250.539 245.456 278.742C237.044 306.944 207.787 327.638 178.347 325.99" fill="#2AB0D3"/>
<path id="Vector_2" opacity="0.04" d="M169.576 189.188C186.9 179.598 208.026 186.085 225.068 177.905C236.336 172.546 252.11 158.865 260.983 150.12C269.152 142.081 275.49 131.644 283.518 123.323C299.856 106.539 318.447 92.012 338.729 80.1647C382.813 54.3545 453.375 26.2877 499.572 59.714C535.628 85.8063 539.712 152.236 514.501 187.778C508.586 196.099 500.84 203.151 495.206 211.613C476.474 239.68 483.234 278.043 497.741 308.508C512.248 339.113 533.656 366.334 544.078 398.632C548.022 410.62 550.276 423.455 548.304 436.007C545.487 454.624 533.234 470.985 517.882 481.986C502.53 492.987 484.22 499.052 465.77 503.142C442.953 508.219 419.291 510.335 395.911 507.937C342.532 502.578 290.983 474.229 237.885 481.845C210.561 485.794 185.632 499.052 159.717 509.066C133.802 519.079 104.929 525.849 78.8728 516.4C39.7183 502.296 4.93002 440.802 27.0424 401.594C40.2817 378.04 57.1829 362.526 81.408 351.101C102.957 340.947 128.027 331.92 137.886 307.943C143.379 294.545 142.393 279.453 141.83 264.926C140.985 236.577 144.928 203.01 169.576 189.188Z" fill="#1BB7D9"/>
<path id="Vector_3" opacity="0.3" d="M115.927 0H190.162C192.123 0 193.822 1.57012 193.822 3.66362V77.9827C193.822 79.9453 192.253 81.6463 190.162 81.6463H115.927C113.967 81.6463 112.398 80.0762 112.398 77.9827V3.66362C112.398 1.57012 113.967 0 115.927 0Z" fill="#9665FF"/>
<path id="Vector_4" opacity="0.21" d="M383.2 54.4307H423.062C423.062 76.4124 405.288 94.3379 383.2 94.3379C361.243 94.3379 343.338 76.5432 343.338 54.4307C343.338 32.7107 360.59 15.0468 382.285 14.5234L383.2 54.4307Z" fill="#1BB7D9"/>
<path id="Vector_5" opacity="0.21" d="M393.917 44.749L393.002 4.8418C403.588 4.8418 413.913 8.89794 421.624 16.0943C429.074 23.5524 433.387 33.4965 433.648 44.0948L393.917 44.749Z" fill="#1BB7D9"/>
<path id="Vector_6" opacity="0.37" d="M99.7324 335.167C100.745 322.391 109.735 302.503 120.877 296.971C132.272 291.44 145.693 292.362 156.202 299.606C163.165 304.479 168.483 311.986 176.08 315.674C191.147 322.918 209.126 312.645 219.635 299.211C230.144 285.776 236.854 269.181 248.756 257.064C272.559 232.961 310.796 233.487 333.966 258.249C334.346 258.644 334.599 258.907 334.979 259.303C343.082 268.391 348.4 279.718 354.984 290.123C361.568 300.528 369.924 310.538 381.193 314.357C396.766 319.626 414.366 311.855 425.381 299.211C436.396 286.566 442.094 269.971 446.905 253.639C451.716 237.307 453.029 209.878 477.788 208.989C520.241 207.464 501.341 335.563 517.801 335.167L482.18 335.167L99.7324 335.167Z" fill="#F0F0F0"/>
<path id="Vector_7" d="M176.83 20.1504C173.955 20.1504 171.733 20.2812 171.733 20.5429C173.171 20.9355 174.739 21.0663 176.177 20.9355C175.916 21.1971 175.524 21.5897 175.131 22.113L171.211 26.5617L158.141 41.6087L152.652 37.8143C151.606 37.16 150.691 36.5058 149.777 35.9824L149.515 35.8516L149.254 36.1133C143.503 42.9172 138.275 48.9359 134.616 53.3846L130.303 58.6184C129.78 59.2726 129.257 59.9268 128.865 60.581C129.519 60.0576 130.041 59.5343 130.564 58.8801L135.008 53.7772C138.798 49.4593 143.895 43.5714 149.646 36.8984L152.26 38.5993L158.01 42.3938L158.272 42.6555L158.533 42.3938L171.603 26.9543L175.393 22.3747C175.916 21.7205 176.177 21.328 176.438 21.0663H176.569C176.438 22.6364 176.569 24.0757 176.961 25.6458C177.223 25.6458 177.353 23.4215 177.353 20.6738V20.2812L176.83 20.1504Z" fill="#455A64"/>
<path id="Vector_8" d="M399.405 218.639C399.144 225.967 399.667 248.341 399.667 248.341L406.201 241.799H442.927C444.234 241.799 445.279 240.752 445.279 239.443V218.77C445.279 217.462 444.234 216.415 442.927 216.415H401.758C400.451 216.415 399.536 217.331 399.405 218.639Z" fill="#EBEBEB"/>
<path id="Vector_9" d="M418.226 229.107C418.226 230.023 417.442 230.808 416.527 230.808C415.612 230.808 414.828 230.023 414.828 229.107C414.828 228.191 415.612 227.406 416.527 227.406C417.442 227.275 418.226 228.06 418.226 229.107C418.226 228.976 418.226 228.976 418.226 229.107Z" fill="#F3F4F4"/>
<path id="Vector_10" d="M424.107 229.107C424.107 230.023 423.323 230.808 422.408 230.808C421.493 230.808 420.709 230.023 420.709 229.107C420.709 228.191 421.493 227.406 422.408 227.406C423.323 227.275 424.107 228.06 424.107 229.107C424.107 228.976 424.107 228.976 424.107 229.107Z" fill="#F3F4F4"/>
<path id="Vector_11" d="M429.857 229.107C429.857 230.023 429.073 230.808 428.158 230.808C427.243 230.808 426.459 230.023 426.459 229.107C426.459 228.191 427.243 227.406 428.158 227.406C429.073 227.275 429.857 228.06 429.857 229.107Z" fill="#F3F4F4"/>
<g id="freepik  Floor  inject 2 1">
<path id="Vector_12" d="M545 528.607C545 528.738 422.93 529 272.5 529C122.07 529 0 528.738 0 528.607C0 528.477 121.939 528.215 272.5 528.215C423.061 528.215 545 528.477 545 528.607Z" fill="#263238"/>
</g>
<g id="freepik  Charts  inject 2 1">
<path id="Vector_13" d="M441.62 199.536C441.881 199.536 442.142 199.406 442.404 199.406C443.188 199.144 443.711 198.621 443.972 197.836C444.103 197.312 444.233 196.658 444.103 196.135C444.103 195.48 444.103 194.826 444.103 194.041C444.103 192.471 444.103 190.77 444.103 188.807C444.103 180.826 444.103 169.442 443.972 155.311C443.972 148.246 443.972 140.526 443.972 132.152C443.972 127.965 443.972 123.647 443.972 119.199C443.972 116.974 443.972 114.75 443.972 112.395C443.972 111.348 443.972 110.04 443.972 108.993C443.841 107.946 442.926 107.161 441.881 107.161H380.977C379.801 107.161 378.755 108.077 378.755 109.385C378.755 110.694 378.755 112.002 378.755 113.441V136.993C378.755 147.199 378.755 157.012 378.755 166.433C378.755 175.854 378.755 184.751 378.755 192.994V196.135C378.755 196.658 378.755 197.181 378.755 197.574C378.886 197.966 379.016 198.49 379.409 198.751C379.67 199.144 380.062 199.275 380.585 199.406C381.108 199.536 381.5 199.536 382.022 199.536H396.007L429.465 199.667L438.614 199.798H440.966L441.62 199.536C441.62 199.406 441.358 199.406 440.835 199.406H438.483L429.334 199.536L395.876 199.667H384.767H381.892C381.369 199.667 380.846 199.667 380.323 199.536C379.801 199.406 379.278 199.144 378.886 198.751C378.494 198.359 378.232 197.836 378.102 197.312C378.102 196.789 378.102 196.265 378.102 195.742V192.602C378.102 184.228 378.102 175.33 378.102 166.041C378.102 156.751 378.102 146.807 378.102 136.601C378.102 131.498 378.102 126.395 378.102 121.03V113.049C378.102 111.741 378.102 110.432 378.102 108.993C378.102 107.423 379.409 106.114 381.108 106.114H442.012C443.319 106.245 444.495 107.161 444.626 108.469C444.756 109.778 444.626 110.825 444.626 112.002V118.675C444.626 123.124 444.626 127.442 444.626 131.629C444.626 140.003 444.626 147.722 444.626 154.788C444.626 168.919 444.495 180.433 444.495 188.284C444.495 190.247 444.495 192.078 444.495 193.518C444.495 194.303 444.495 194.957 444.495 195.611C444.495 196.265 444.495 196.789 444.364 197.312C444.103 198.097 443.449 198.621 442.665 198.882C442.273 199.406 441.881 199.536 441.62 199.536Z" fill="#263238"/>
<path id="Vector_14" d="M415.48 125.087C406.593 123.124 396.791 127.965 394.308 137.124C391.955 145.891 397.706 156.227 406.593 158.583C415.611 160.807 424.76 155.835 428.027 147.068C431.164 137.648 425.152 127.573 416.003 124.563C414.958 124.171 414.566 125.872 415.611 126.264C423.322 129.143 428.942 137.517 426.59 145.891C424.368 153.872 415.088 159.237 407.116 157.143C399.405 155.05 394.439 146.807 395.484 139.218C396.66 129.797 406.593 124.171 415.48 125.741C415.742 125.61 415.873 125.217 415.48 125.087Z" fill="#263238"/>
<path id="Vector_15" d="M406.724 158.321C416.134 161.069 425.936 155.835 428.942 146.545C431.686 136.994 425.544 126.657 416.264 123.778C414.173 123.124 413.389 126.264 415.35 127.05C423.191 130.19 428.419 138.695 425.282 147.069C422.538 154.527 414.304 158.059 406.724 157.274C406.201 157.274 406.07 158.19 406.724 158.321Z" fill="#1BB7D9"/>
<path id="Vector_16" d="M429.336 174.021C429.336 174.152 421.232 174.414 411.3 174.414C401.367 174.414 393.264 174.283 393.264 174.021C393.264 173.76 401.367 173.629 411.3 173.629C421.232 173.629 429.336 173.76 429.336 174.021Z" fill="#1BB7D9"/>
<path id="Vector_17" d="M429.336 179.387C429.336 179.518 421.232 179.779 411.3 179.779C401.367 179.779 393.264 179.648 393.264 179.387C393.264 179.125 401.367 178.994 411.3 178.994C421.232 178.994 429.336 179.256 429.336 179.387Z" fill="#1BB7D9"/>
<path id="Vector_18" d="M183.105 49.8514V170.882C183.105 173.629 185.327 175.723 187.941 175.723H348.958C351.703 175.723 353.794 173.499 353.794 170.882V45.6645C353.794 42.9167 351.572 40.8232 348.958 40.8232H348.827L187.81 45.0102C185.197 45.0102 183.105 47.2346 183.105 49.8514Z" fill="#F3F4F4"/>
<path id="Vector_19" d="M339.416 71.0485C339.416 71.1794 337.325 70.0018 333.404 68.8242C327.914 67.1232 322.033 66.5999 316.283 67.5158C312.362 68.17 308.572 69.3476 305.043 71.1794C300.991 73.4037 297.332 76.0206 293.934 79.1608C290.274 82.4319 286.745 85.9647 282.563 89.3666C278.381 93.0302 273.414 95.6471 268.056 97.2172C265.311 97.8714 262.436 98.1331 259.561 97.7406C256.816 97.3481 254.202 96.563 251.719 95.2546C247.145 92.8994 242.832 90.2825 238.519 87.404C234.729 84.9179 230.546 82.9553 226.103 81.7777C222.313 80.8618 218.261 80.6001 214.34 80.8618C208.59 81.3852 202.97 83.0861 198.003 86.0955C194.474 88.189 192.906 89.89 192.775 89.7591C193.167 89.3666 193.56 88.9741 193.952 88.5816C195.128 87.5348 196.435 86.4881 197.742 85.703C206.237 80.2076 216.562 78.3758 226.364 80.731C230.938 81.9085 235.251 83.7403 239.172 86.3572C243.355 89.1049 247.798 91.7218 252.242 94.077C257.078 96.563 262.567 97.2172 267.795 95.9088C273.022 94.3387 277.727 91.7218 281.91 88.3199C285.961 85.0488 289.621 81.3852 293.28 78.2449C296.678 75.1047 300.468 72.357 304.651 70.2635C308.31 68.5625 312.231 67.3849 316.152 66.8615C322.033 66.0765 327.914 66.5999 333.534 68.5625C335.103 69.0859 336.54 69.7401 337.847 70.3943C338.501 70.3943 339.024 70.656 339.416 71.0485Z" fill="#455A64"/>
<path id="Vector_20" d="M236.951 99.4414H221.137V142.096H236.951V99.4414Z" fill="#455A64"/>
<path id="Vector_21" d="M303.605 99.4414H287.922V142.096H303.605V99.4414Z" fill="#455A64"/>
<path id="Vector_22" d="M325.824 74.4502H310.141V142.096H325.824V74.4502Z" fill="#455A64"/>
<path id="Vector_23" d="M216.562 128.619H200.748V143.012H216.562V128.619Z" fill="#455A64"/>
<path id="Vector_24" d="M259.17 118.675H243.355V142.096H259.17V118.675Z" fill="#455A64"/>
<path id="Vector_25" d="M281.517 113.311H265.703V142.096H281.517V113.311Z" fill="#455A64"/>
<path id="Vector_26" d="M237.475 147.068C237.475 147.461 233.685 147.723 228.98 147.723C224.275 147.723 220.484 147.461 220.484 147.068C220.484 146.676 224.275 146.414 228.98 146.414C233.685 146.414 237.475 146.676 237.475 147.068Z" fill="#263238"/>
<path id="Vector_27" d="M217.869 147.068C217.869 147.461 214.079 147.723 209.374 147.723C204.669 147.723 200.879 147.461 200.879 147.068C200.879 146.676 204.669 146.414 209.374 146.414C214.079 146.414 217.869 146.676 217.869 147.068Z" fill="#263238"/>
<path id="Vector_28" d="M329.091 147.068C329.091 147.461 324.778 147.723 319.419 147.723C314.061 147.723 309.748 147.461 309.748 147.068C309.748 146.676 314.061 146.414 319.419 146.414C324.778 146.414 329.091 146.676 329.091 147.068Z" fill="#263238"/>
<path id="Vector_29" d="M296.025 147.723C301.366 147.723 305.696 147.43 305.696 147.068C305.696 146.707 301.366 146.414 296.025 146.414C290.684 146.414 286.354 146.707 286.354 147.068C286.354 147.43 290.684 147.723 296.025 147.723Z" fill="#263238"/>
<path id="Vector_30" d="M281.387 147.068C281.387 147.461 277.597 147.723 272.892 147.723C268.187 147.723 264.396 147.461 264.396 147.068C264.396 146.676 268.187 146.414 272.892 146.414C277.597 146.414 281.387 146.676 281.387 147.068Z" fill="#263238"/>
<path id="Vector_31" d="M258.385 147.068C258.385 147.461 254.595 147.723 249.89 147.723C245.185 147.723 241.395 147.461 241.395 147.068C241.395 146.676 245.185 146.414 249.89 146.414C254.595 146.414 258.385 146.676 258.385 147.068Z" fill="#263238"/>
<path id="Vector_32" d="M309.748 200.19H310.01C310.271 200.19 310.533 200.321 310.794 200.452C311.186 200.714 311.578 200.975 311.709 201.368C311.97 201.891 312.101 202.546 311.97 203.2C311.97 205.948 311.97 210.004 311.97 215.237C311.97 220.471 311.97 226.882 311.97 234.341C311.97 238.135 311.97 242.06 311.97 246.247V251.088C312.101 251.743 311.97 252.266 311.709 252.789C311.447 253.313 310.925 253.705 310.271 253.967C309.748 254.098 309.095 254.098 308.441 254.098H305.043L305.305 253.836C305.305 257.631 305.305 261.687 305.305 265.874V266.528L304.782 266.005L294.065 253.967L294.326 254.098H184.281H176.57C176.178 254.098 175.786 254.098 175.263 254.098C174.74 254.098 174.348 253.836 173.956 253.575C173.564 253.313 173.302 252.789 173.172 252.397C173.041 252.135 173.041 251.874 173.041 251.612V223.742C173.041 217.331 173.041 210.92 173.041 204.639V202.284C173.041 201.368 173.564 200.583 174.348 200.19C174.74 199.929 175.263 199.929 175.655 199.929H188.071L251.328 200.06L293.934 200.19L305.566 200.321H308.572L309.748 200.19L308.703 200.06H305.697H294.065L251.458 200.19L188.202 200.321H175.786C175.394 200.321 175.132 200.321 174.871 200.452C174.217 200.714 173.825 201.368 173.825 202.022V223.742C173.825 230.284 173.825 236.827 173.825 243.5V251.088C173.825 251.481 173.825 251.874 173.956 252.266C174.087 252.659 174.217 252.92 174.479 253.182C174.74 253.444 175.132 253.575 175.524 253.575H184.412H294.457H294.588L294.718 253.705L305.305 265.743L304.782 265.874C304.782 261.687 304.782 257.631 304.782 253.836V253.575H308.441C308.964 253.575 309.487 253.575 310.141 253.444C310.663 253.313 311.055 252.92 311.317 252.528C311.578 252.135 311.709 251.612 311.709 250.958C311.709 250.434 311.709 249.911 311.709 249.257V245.986C311.709 241.799 311.709 237.742 311.709 234.079C311.709 226.621 311.709 220.209 311.709 214.976C311.709 209.742 311.709 205.686 311.709 202.938C311.84 202.284 311.709 201.761 311.447 201.237C311.317 200.845 310.925 200.583 310.533 200.321C310.402 200.321 310.01 200.19 309.748 200.19Z" fill="#263238"/>
<path id="Vector_33" d="M180.49 244.415C181.536 240.621 182.843 236.696 185.457 233.555C188.071 230.415 192.122 228.452 196.043 229.499C202.186 231.069 205.061 239.182 211.334 239.967C214.732 240.49 218.131 238.397 220.352 235.649C222.574 232.901 224.012 229.761 225.711 226.621C228.325 222.041 231.723 217.854 236.428 215.499C241.133 213.144 247.145 213.144 251.327 216.415C258.385 221.91 257.339 234.21 264.919 239.051C268.579 241.406 273.415 241.275 276.943 238.658C280.342 236.172 281.91 231.985 285.439 229.761C289.49 227.144 295.11 228.191 298.77 231.331C302.429 234.471 304.389 239.182 305.043 243.892" fill="#1BB7D9"/>
<path id="Vector_34" d="M302.43 222.303C302.3 222.303 302.169 222.303 302.169 222.173L301.254 221.78C300.078 221.257 298.901 220.864 297.725 220.602C293.282 219.687 288.707 219.817 284.394 220.995C281.388 221.78 278.513 222.958 275.638 224.266C272.632 225.705 269.495 227.406 266.097 229.107C262.568 230.939 258.909 232.64 255.249 233.948C251.198 235.388 246.885 236.042 242.572 235.78C238.259 235.388 234.077 234.341 230.156 232.64C226.365 231.07 222.706 229.238 219.439 227.537C212.773 224.135 206.369 221.257 200.749 220.472C196.306 219.687 191.731 219.948 187.418 221.387C185.85 221.911 184.412 222.696 182.975 223.612C183.105 223.481 183.105 223.481 183.236 223.35L184.02 222.827C185.066 222.173 186.111 221.649 187.288 221.126C191.601 219.556 196.175 219.163 200.749 219.948C206.5 220.733 212.904 223.481 219.569 226.883C222.967 228.584 226.496 230.416 230.286 231.855C234.207 233.556 238.259 234.472 242.572 234.995C246.754 235.257 250.936 234.734 254.988 233.294C258.647 231.986 262.307 230.416 265.836 228.584C269.234 226.883 272.37 225.182 275.507 223.743C278.382 222.434 281.258 221.387 284.394 220.602C288.838 219.425 293.412 219.294 297.856 220.472C299.424 220.733 300.993 221.518 302.43 222.303Z" fill="#263238"/>
<path id="Vector_35" d="M244.139 214.06C244.139 214.845 243.616 215.5 242.832 215.5C242.048 215.5 241.395 214.976 241.395 214.191C241.395 213.406 241.917 212.752 242.701 212.752C243.486 212.752 244.008 213.275 244.139 214.06Z" fill="#455A64"/>
<path id="Vector_36" d="M194.868 219.817C194.868 220.602 194.214 221.257 193.43 221.257C192.646 221.257 191.992 220.602 191.992 219.817C191.992 219.032 192.646 218.378 193.43 218.378C194.214 218.378 194.737 218.901 194.868 219.556C194.868 219.686 194.868 219.817 194.868 219.817Z" fill="#455A64"/>
<path id="Vector_37" d="M292.889 219.817C292.889 220.602 292.236 221.257 291.451 221.257C290.667 221.257 290.014 220.602 290.014 219.817C290.014 219.032 290.667 218.378 291.451 218.378C292.236 218.509 292.889 219.032 292.889 219.817Z" fill="#455A64"/>
</g>
<g id="freepik  character 2  inject 2 1">
<path id="Vector_38" d="M385.682 413.858H397.967C403.718 413.858 415.872 398.811 349.479 400.512C305.827 401.69 302.951 408.101 305.173 411.895C306.219 413.596 308.179 414.643 310.27 414.512C311.316 414.381 312.754 414.381 314.453 414.381L313.407 418.961L289.098 526.514L293.28 526.122L311.185 466.85L345.427 465.541L347.388 528.477H352.746L354.053 465.149H354.184L357.843 465.018L388.165 463.84L406.201 528.477H411.298L385.682 413.858ZM313.799 458.476L325.823 418.961L327.13 414.512C332.096 414.512 337.978 414.381 343.859 414.381L345.166 457.56L313.799 458.476ZM358.889 457.167H357.582L354.315 457.298L355.23 413.858H374.311L386.074 456.251L358.889 457.167Z" fill="#455A64"/>
<g  >
<path id="laptop-light" d="M276.159 521.15V507.28L300.991 507.149L301.121 527.953L299.553 528.084C292.626 528.477 264.657 529.393 259.952 527.953C255.117 526.383 276.159 521.15 276.159 521.15Z" fill="#1BB7D9"/>
</g>
<path id="Vector_40" d="M259.561 526.645C259.561 526.907 268.84 527.038 280.341 527.038C291.842 527.038 301.122 526.907 301.122 526.645C301.122 526.384 291.842 526.253 280.341 526.253C268.84 526.253 259.561 526.384 259.561 526.645Z" fill="#263238"/>
<path id="Vector_41" d="M275.767 524.029C276.029 523.898 275.767 523.244 275.245 522.459C274.722 521.673 274.068 521.281 273.938 521.543C273.807 521.804 274.068 522.328 274.591 522.982C275.114 523.636 275.506 524.159 275.767 524.029Z" fill="#263238"/>
<path id="Vector_42" d="M274.198 524.944C274.459 524.814 274.329 524.028 273.806 523.113C273.283 522.197 272.63 521.673 272.499 521.804C272.368 521.935 272.63 522.72 273.022 523.505C273.414 524.29 273.936 525.075 274.198 524.944Z" fill="#263238"/>
<path id="Vector_43" d="M293.672 526.514C293.803 526.514 294.195 526.252 294.717 525.598C295.371 524.813 296.155 524.028 296.939 523.374C297.723 522.72 298.638 522.327 299.684 522.196C300.468 522.065 300.991 522.196 300.991 522.065C300.991 521.935 300.599 521.673 299.684 521.542C298.508 521.542 297.462 521.935 296.547 522.589C295.632 523.243 294.979 524.159 294.456 525.075C293.803 525.991 293.672 526.514 293.672 526.514Z" fill="#263238"/>
<path id="Vector_44" d="M275.636 521.411C275.505 521.542 275.897 522.065 276.682 522.327C277.466 522.589 277.989 522.458 278.119 522.327C278.25 522.196 277.597 521.804 277.074 521.542C276.551 521.28 275.767 521.28 275.636 521.411Z" fill="#263238"/>
<path id="Vector_45" d="M276.029 520.104C276.029 520.365 276.683 520.496 277.467 520.496C278.251 520.496 279.035 520.365 278.905 520.104C278.774 519.842 278.251 519.711 277.467 519.711C276.683 519.711 276.16 519.842 276.029 520.104Z" fill="#263238"/>
<path id="Vector_46" d="M328.698 521.15V507.28L353.661 507.149L353.792 527.953L352.223 528.084C345.296 528.477 317.328 529.393 312.753 527.953C307.656 526.383 328.698 521.15 328.698 521.15Z" fill="#1BB7D9"/>
<path id="Vector_47" d="M312.102 526.645C312.102 526.907 321.381 527.038 332.882 527.038C344.383 527.038 353.663 526.907 353.663 526.645C353.663 526.384 344.383 526.253 332.882 526.253C321.512 526.253 312.102 526.384 312.102 526.645Z" fill="#263238"/>
<path id="Vector_48" d="M328.306 524.029C328.568 523.898 328.306 523.244 327.784 522.459C327.261 521.673 326.607 521.281 326.477 521.543C326.346 521.804 326.607 522.328 327.13 522.982C327.653 523.636 328.045 524.159 328.306 524.029Z" fill="#263238"/>
<path id="Vector_49" d="M326.738 524.944C327 524.814 326.869 524.028 326.346 523.113C325.823 522.197 325.17 521.673 325.039 521.804C324.908 521.935 325.17 522.72 325.693 523.505C326.215 524.29 326.477 525.075 326.738 524.944Z" fill="#263238"/>
<path id="Vector_50" d="M346.212 526.514C346.343 526.514 346.735 526.252 347.258 525.598C347.911 524.813 348.696 524.028 349.48 523.374C350.264 522.72 351.179 522.327 352.224 522.196C353.009 522.065 353.531 522.196 353.531 522.065C353.531 521.935 353.139 521.673 352.224 521.542C351.048 521.542 350.003 521.935 349.088 522.589C348.173 523.243 347.519 524.159 346.997 525.075C346.343 525.991 346.082 526.514 346.212 526.514Z" fill="#263238"/>
<path id="Vector_51" d="M328.175 521.411C328.044 521.542 328.437 522.065 329.221 522.327C330.005 522.589 330.528 522.458 330.658 522.327C330.789 522.196 330.136 521.804 329.613 521.542C329.09 521.28 328.306 521.28 328.175 521.411Z" fill="#263238"/>
<path id="Vector_52" d="M328.568 520.104C328.568 520.365 329.222 520.496 330.006 520.496C330.79 520.496 331.574 520.365 331.444 520.104C331.313 519.842 330.79 519.711 330.006 519.711C329.222 519.711 328.568 519.842 328.568 520.104Z" fill="#263238"/>
<path id="Vector_53" d="M400.058 271.762C399.013 271.5 397.706 271.631 397.183 270.846C396.529 270.061 397.052 269.014 397.314 268.098C398.359 265.22 398.49 261.949 397.444 259.07C396.66 257.107 395.353 255.537 393.654 254.36C393.916 254.098 394.177 253.836 394.308 253.575C394.83 252.659 395.092 251.743 394.961 250.696C395.092 248.864 394.308 247.163 393.001 245.986C391.824 244.939 390.125 244.939 388.949 245.986C388.165 246.771 388.034 248.079 388.818 248.995C388.818 248.995 388.818 248.995 388.949 249.126C389.472 249.519 390.256 249.649 390.91 249.388C391.302 249.126 391.432 248.864 391.432 248.864C391.302 248.995 391.04 249.126 390.91 249.257C390.256 249.519 389.603 249.388 389.08 248.864C388.426 248.21 388.426 247.033 389.08 246.378L389.211 246.247C390.256 245.332 391.824 245.462 392.739 246.378C393.916 247.556 394.438 249.126 394.438 250.827C394.438 251.743 394.177 252.659 393.785 253.313C393.654 253.575 393.393 253.836 393.131 254.098C392.478 253.706 391.694 253.313 390.91 253.182C389.211 252.79 387.381 252.92 385.812 252.135C384.506 251.35 383.591 250.173 383.068 248.864C383.068 248.733 383.068 248.603 383.068 248.341C383.199 246.117 383.591 243.761 383.983 241.537C384.244 239.313 384.244 237.088 383.852 234.995C383.199 231.2 380.977 228.06 377.579 226.228C375.357 225.051 372.612 225.051 370.39 226.098C369.737 226.359 369.214 226.752 368.691 227.275L368.43 227.537C367.646 227.929 366.992 228.453 366.47 229.107L362.418 265.481L391.955 283.538C394.308 283.407 396.53 283.014 398.751 282.229C400.973 281.444 402.541 279.612 403.195 277.388C403.718 274.771 402.411 272.416 400.058 271.762ZM380.715 233.686C379.67 230.808 377.448 228.453 374.703 227.144C372.743 226.359 370.652 226.49 368.691 227.275C369.214 226.883 369.737 226.49 370.39 226.228C372.612 225.312 375.226 225.443 377.317 226.49C380.454 228.322 382.545 231.331 383.199 234.995C383.591 237.088 383.591 239.182 383.329 241.275C383.199 242.976 382.676 244.546 382.545 246.378C382.414 245.201 382.284 243.892 382.284 242.584C382.153 239.574 381.63 236.565 380.715 233.686Z" fill="#263238"/>
<path id="Vector_54" d="M371.96 233.556C371.829 232.902 371.437 232.247 370.784 231.855C369.607 231.331 368.431 231.331 367.255 231.724V223.35L351.049 210.135L342.292 214.714C337.718 217.069 334.842 221.78 334.973 227.014C334.973 233.687 335.234 242.846 335.627 248.079C336.411 256.977 345.429 257.762 345.429 257.762C345.429 257.762 345.821 260.902 346.082 264.173C346.082 264.173 344.122 290.473 353.401 290.211C360.197 290.08 364.772 275.687 366.732 268.098L367.778 263.911V263.65V263.519L367.516 238.528L367.778 238.789C368.431 239.313 369.215 239.444 369.869 239.051C370.914 238.659 371.568 237.743 371.96 236.696C372.221 235.78 372.221 234.602 371.96 233.556Z" fill="#FFBE9D"/>
<path id="Vector_55" d="M336.934 233.425C336.934 234.079 337.456 234.602 338.11 234.602C338.763 234.602 339.286 234.079 339.286 233.425C339.286 232.77 338.763 232.247 338.11 232.247C337.456 232.247 336.934 232.77 336.934 233.425Z" fill="#263238"/>
<path id="Vector_56" d="M335.756 232.247C335.887 232.378 336.671 231.593 337.978 231.593C339.285 231.593 340.069 232.116 340.33 231.855C340.461 231.724 340.2 231.462 339.808 231.2C339.285 230.808 338.631 230.677 337.978 230.808C337.324 230.808 336.671 231.07 336.279 231.593C335.756 231.855 335.625 232.116 335.756 232.247Z" fill="#263238"/>
<path id="Vector_57" d="M350.133 233.033C350.133 233.687 350.656 234.211 351.309 234.211C351.963 234.211 352.485 233.687 352.485 233.033C352.485 232.379 351.963 231.855 351.309 231.855C350.525 231.986 350.133 232.379 350.133 233.033Z" fill="#263238"/>
<path id="Vector_58" d="M349.348 231.855C349.479 231.986 350.263 231.332 351.57 231.201C352.877 231.07 353.792 231.724 353.922 231.463C354.053 231.332 353.792 231.07 353.399 230.809C352.223 230.154 350.786 230.285 349.871 231.07C349.348 231.463 349.217 231.724 349.348 231.855Z" fill="#263238"/>
<path id="Vector_59" d="M345.166 242.454C344.513 242.585 343.859 242.585 343.206 242.585C343.075 242.585 342.814 242.585 342.683 242.585C342.421 242.585 342.291 242.323 342.16 242.192C342.029 241.8 342.029 241.276 342.291 240.884L343.075 238.267C343.598 236.042 344.382 233.818 345.297 231.725C344.905 233.949 344.382 236.173 343.598 238.398L342.814 241.015C342.683 241.276 342.552 241.669 342.683 242.061C342.683 242.323 343.075 242.323 343.336 242.323C343.859 242.192 344.513 242.192 345.166 242.454Z" fill="#263238"/>
<path id="Vector_60" d="M349.348 243.37C349.479 243.239 345.819 245.594 343.336 245.594C344.251 246.902 345.95 247.295 347.387 246.641C348.825 246.248 349.74 244.809 349.348 243.37Z" fill="#FAFAFA"/>
<path id="Vector_61" d="M345.166 257.631C349.348 257.37 353.4 255.93 356.798 253.313C356.798 253.313 354.315 259.987 345.297 259.725L345.166 257.631Z" fill="#EB996E"/>
<path id="Vector_62" d="M333.534 228.061C337.455 228.584 340.199 227.537 344.12 226.621C347.91 225.705 351.57 223.219 352.877 219.425C353.269 221.911 354.445 224.135 356.144 225.967C356.536 226.36 357.19 226.752 357.451 226.36C357.582 226.098 357.582 225.836 357.451 225.574L356.667 222.434C357.974 224.92 359.804 227.145 361.895 228.976C364.117 230.677 370.651 233.425 369.606 230.808C369.344 230.154 371.566 210.004 352.354 209.742C333.142 209.35 333.534 228.061 333.534 228.061Z" fill="#263238"/>
<path id="Vector_63" d="M367.516 233.818C367.516 233.818 367.908 233.294 368.692 233.425C369.868 233.556 370.783 234.603 370.652 235.78C370.652 236.304 370.391 236.827 369.999 237.22C369.607 237.481 369.215 237.743 368.692 237.743C367.908 237.743 367.516 237.351 367.516 237.351C367.516 237.351 368.038 237.481 368.561 237.351C369.476 237.22 370.129 236.304 369.868 235.388C369.737 234.734 369.215 234.21 368.561 234.08C367.908 233.687 367.516 233.818 367.516 233.818Z" fill="#EB996E"/>
<path id="Vector_64" d="M399.274 296.491L402.541 295.837C402.541 295.837 395.353 263.519 370.39 263.519H367.515V263.649V263.911L366.469 268.098C364.509 275.687 359.934 289.949 353.138 290.211C344.512 290.472 345.688 267.575 345.819 264.434C345.558 264.434 345.427 264.565 345.166 264.565C345.166 264.565 317.981 266.005 305.957 289.949L326.868 305.258L331.965 302.117C331.965 302.117 333.664 335.744 330.789 344.903C327.522 355.24 322.555 366.754 322.555 366.754C345.558 364.922 371.697 365.969 399.535 368.586L380.976 300.155C387.25 299.893 393.392 298.585 399.274 296.491Z" fill="#9665FF"/>
<path id="Vector_65" d="M376.925 312.585C376.925 312.585 376.794 312.847 376.272 313.37C375.618 314.024 374.965 314.548 374.311 314.94C369.475 318.08 363.071 317.949 358.497 314.417C357.844 313.893 357.19 313.37 356.667 312.716C356.275 312.192 356.145 311.931 356.145 311.931C356.145 311.931 357.059 312.847 358.758 314.024C363.333 317.164 369.345 317.426 374.05 314.548C375.88 313.501 376.794 312.585 376.925 312.585Z" fill="#263238"/>
<path id="Vector_66" d="M388.95 330.511C388.689 329.987 388.558 329.464 388.428 328.94C388.036 327.763 387.643 326.324 387.121 324.492C385.944 320.697 384.507 315.594 382.677 309.837C380.847 304.08 379.148 298.977 377.841 295.314C377.319 293.613 376.796 292.043 376.404 290.865C376.142 290.342 376.012 289.818 375.881 289.164C376.142 289.687 376.404 290.211 376.534 290.734C376.926 291.781 377.58 293.22 378.233 295.052C379.54 298.716 381.37 303.819 383.2 309.576C385.03 315.333 386.467 320.566 387.513 324.361C388.036 326.324 388.428 327.763 388.689 328.94C388.82 329.464 388.95 329.987 388.95 330.511Z" fill="#263238"/>
<path id="Vector_67" d="M380.845 278.959C379.669 278.959 378.493 278.566 377.447 278.043C376.271 277.65 375.356 277.127 374.441 276.211C375.618 276.473 376.663 276.865 377.709 277.389C378.885 277.781 379.931 278.304 380.845 278.959Z" fill="#263238"/>
<path id="Vector_68" d="M387.381 290.08C387.512 288.772 387.773 287.463 388.296 286.286C388.557 284.977 389.08 283.8 389.864 282.622C389.733 283.931 389.472 285.239 388.949 286.417C388.557 287.856 388.034 289.033 387.381 290.08Z" fill="#263238"/>
<path id="Vector_69" d="M364.902 298.193C365.164 297.015 365.686 295.837 366.34 294.791C366.732 293.613 367.386 292.566 368.17 291.52C367.647 294.006 366.601 296.23 364.902 298.193Z" fill="#263238"/>
<path id="Vector_70" d="M360.851 305.258C359.675 304.604 358.629 303.819 357.845 302.772C356.93 301.856 356.146 300.809 355.623 299.501C357.583 301.333 359.282 303.165 360.851 305.258Z" fill="#263238"/>
<path id="Vector_71" d="M377.056 304.211C376.402 305.65 375.487 306.959 374.311 308.005C373.396 309.052 372.22 309.968 371.044 310.753L370.129 311.407L370.913 310.622C371.044 310.491 371.174 310.361 371.305 310.361C371.305 310.361 371.305 310.491 371.174 310.753L370.913 310.622C371.305 310.099 372.481 308.921 373.788 307.613C374.834 306.304 375.879 305.127 377.056 304.211Z" fill="#263238"/>
<path id="Vector_72" d="M380.585 327.501C379.278 327.24 378.102 326.716 376.926 326.062C375.75 325.539 374.704 324.623 373.92 323.576C375.096 324.1 376.272 324.623 377.318 325.408C378.494 326.062 379.54 326.716 380.585 327.501Z" fill="#263238"/>
<path id="Vector_73" d="M364.248 322.268C363.856 323.576 363.203 324.623 362.288 325.67C361.634 326.847 360.72 327.894 359.805 328.679C360.197 327.37 360.85 326.193 361.765 325.277C362.419 324.099 363.203 323.053 364.248 322.268Z" fill="#263238"/>
<path id="Vector_74" d="M353.53 323.315C352.484 322.922 351.57 322.399 350.785 321.614C349.348 320.567 348.302 319.52 348.433 319.389C348.564 319.258 349.74 320.043 351.178 321.09C352.615 322.137 353.53 323.053 353.53 323.315Z" fill="#263238"/>
<path id="Vector_75" d="M347.65 307.352C347.781 307.482 346.735 308.398 345.297 309.445C343.86 310.492 342.684 311.146 342.684 310.884C342.684 310.623 343.598 309.838 344.905 308.791C345.82 308.137 346.735 307.613 347.65 307.352Z" fill="#263238"/>
<path id="Vector_76" d="M345.428 299.239C345.297 299.37 344.382 298.323 343.337 297.015C342.291 295.706 341.638 294.529 341.769 294.398C341.899 294.267 342.814 295.314 343.86 296.622C344.905 298.061 345.559 299.108 345.428 299.239Z" fill="#263238"/>
<path id="Vector_77" d="M368.691 277.781C368.953 276.604 369.345 275.557 369.998 274.641C370.39 273.594 371.044 272.548 371.959 271.763C371.697 272.94 371.305 273.987 370.652 274.903C370.129 276.081 369.606 276.996 368.691 277.781Z" fill="#263238"/>
<path id="Vector_78" d="M339.547 279.22C338.37 278.828 337.194 278.304 336.149 277.519C334.972 276.996 334.057 276.211 333.143 275.295C334.319 275.687 335.495 276.211 336.541 276.996C337.717 277.519 338.762 278.304 339.547 279.22Z" fill="#263238"/>
<path id="Vector_79" d="M324.386 275.295C324.516 275.426 324.124 276.472 323.34 277.781C322.556 279.089 321.902 280.005 321.641 279.874C321.38 279.743 322.033 278.697 322.687 277.388C323.34 276.08 324.255 275.164 324.386 275.295Z" fill="#263238"/>
<path id="Vector_80" d="M340.199 363.614C337.978 362.698 336.017 361.389 334.188 359.688C335.364 360.081 336.409 360.604 337.324 361.389C338.5 361.913 339.415 362.698 340.199 363.614Z" fill="#263238"/>
<path id="Vector_81" d="M383.852 358.904C383.983 359.034 383.068 360.343 381.761 361.782C380.454 363.221 379.278 364.268 379.147 364.137C379.016 364.006 379.931 362.698 381.238 361.259C382.676 359.82 383.722 358.773 383.852 358.904Z" fill="#263238"/>
<path id="Vector_82" d="M354.184 363.876C354.184 362.175 354.184 360.344 354.184 358.643C354.314 358.643 354.837 359.82 354.837 361.259C354.968 362.175 354.706 363.091 354.184 363.876Z" fill="#263238"/>
<path id="Vector_83" d="M369.606 364.137C368.429 363.876 367.384 363.352 366.469 362.567C365.423 362.044 364.378 361.39 363.594 360.474C365.816 361.259 367.907 362.436 369.606 364.137Z" fill="#263238"/>
<path id="Vector_84" d="M399.667 368.586C399.406 368.586 399.144 368.586 398.883 368.586L396.661 368.455L388.427 367.67C381.5 367.016 371.829 366.231 361.243 365.969C350.656 365.839 340.985 365.969 333.927 366.362L325.693 366.754L323.472 366.885C323.21 366.885 322.949 366.885 322.688 366.885L323.472 366.754L325.693 366.493C327.654 366.362 330.399 366.1 333.927 365.969C340.854 365.577 350.526 365.184 361.243 365.446C371.96 365.708 381.5 366.624 388.427 367.278C391.956 367.67 394.701 367.932 396.661 368.194L398.883 368.455C399.144 368.455 399.406 368.455 399.667 368.586Z" fill="#263238"/>
<g id="Group_2" opacity="0.2">
<path id="Vector_85" opacity="0.2" d="M375.881 289.295L382.416 332.866C382.416 332.866 388.428 332.866 389.604 331.034L375.881 289.295Z" fill="black"/>
<path id="Vector_86" opacity="0.2" d="M375.881 289.295L382.416 332.866C382.416 332.866 388.428 332.866 389.604 331.034L375.881 289.295Z" fill="black"/>
</g>
<path id="Vector_87" d="M337.977 365.97C322.555 367.147 314.191 366.101 297.331 367.671C285.569 369.241 276.551 379.185 276.289 391.092L273.283 519.057H304.389L309.355 404.307L318.504 405.484C317.328 448.401 321.771 519.057 321.771 519.057L356.275 517.356L354.314 407.185C354.314 407.185 400.711 410.326 399.535 368.587C399.666 368.587 363.071 364.138 337.977 365.97Z" fill="#263238"/>
<path id="Vector_88" d="M347.257 365.577C346.473 365.708 345.689 365.839 344.904 365.97C343.336 366.231 341.245 366.493 338.5 367.016C335.364 367.409 332.227 368.325 329.352 369.502C327.653 370.288 326.084 371.334 324.647 372.512C323.209 373.82 321.902 375.521 321.118 377.222C319.55 380.755 318.765 384.68 318.896 388.606C318.896 392.269 319.027 395.54 319.027 398.288C319.027 401.036 318.896 403.26 318.765 404.83C318.765 405.615 318.635 406.139 318.635 406.531C318.635 406.793 318.635 406.924 318.504 407.185C318.504 406.4 318.504 405.615 318.504 404.83C318.504 403.26 318.504 401.036 318.504 398.288C318.504 395.54 318.373 392.269 318.243 388.606C318.112 384.549 318.896 380.624 320.464 376.961C321.379 375.129 322.686 373.428 324.255 371.988C325.692 370.68 327.391 369.633 329.09 368.848C332.096 367.671 335.233 366.886 338.5 366.493C341.245 366.101 343.467 365.839 344.904 365.708C345.689 365.708 346.211 365.577 346.603 365.577C346.865 365.577 347.126 365.577 347.257 365.577Z" fill="#455A64"/>
<path id="Vector_89" d="M306.611 396.325C307.265 397.634 307.788 398.942 308.31 400.25C308.964 401.559 309.356 402.998 309.356 404.438C308.702 403.129 308.18 401.821 307.657 400.512C307.003 399.204 306.611 397.764 306.611 396.325Z" fill="#455A64"/>
<path id="Vector_90" d="M309.094 393.708C309.617 395.409 310.009 397.11 310.009 398.942C310.27 400.774 310.009 402.605 309.355 404.306C309.094 404.306 309.486 401.951 309.355 399.073C309.224 396.194 308.832 393.708 309.094 393.708Z" fill="#455A64"/>
<path id="Vector_91" d="M351.963 396.063C352.747 397.764 353.27 399.596 353.531 401.559C353.923 403.391 354.315 405.223 354.315 407.185C353.531 405.484 353.008 403.652 352.747 401.69C352.486 399.858 352.094 398.026 351.963 396.063Z" fill="#455A64"/>
<path id="Vector_92" d="M355.099 396.063C355.883 399.727 355.622 403.522 354.445 407.054C354.445 405.222 354.576 403.391 354.837 401.559C354.837 399.727 354.968 397.895 355.099 396.063Z" fill="#455A64"/>
<path id="Vector_93" d="M303.604 511.599C303.604 511.729 296.808 511.991 288.444 511.991C280.079 511.991 273.152 511.729 273.152 511.599C273.152 511.468 279.949 511.206 288.313 511.206C296.677 511.206 303.604 511.337 303.604 511.599Z" fill="#455A64"/>
<path id="Vector_94" d="M355.884 510.944C355.884 511.075 348.173 511.337 338.633 511.337C329.092 511.337 321.381 511.206 321.381 510.944C321.381 510.683 329.092 510.552 338.633 510.552C348.173 510.683 355.884 510.813 355.884 510.944Z" fill="#455A64"/>
<path id="Vector_95" d="M395.485 387.689H395.092H393.785H388.819L370.522 387.82H357.844C355.492 387.82 353.27 388.082 350.917 388.605C348.565 389.129 346.474 390.437 344.905 392.4C343.468 394.493 342.684 396.979 342.684 399.596C342.553 402.213 342.814 404.961 342.945 407.708C343.076 413.335 343.206 418.961 343.468 424.98C344.121 448.532 344.644 469.859 344.905 485.299C345.036 493.018 345.036 499.299 345.036 503.617C345.036 505.71 345.036 507.411 345.036 508.589C345.036 509.112 345.036 509.505 345.036 509.897C345.036 510.028 345.036 510.159 345.036 510.29C345.036 510.159 345.036 510.028 345.036 509.897C345.036 509.505 345.036 509.112 345.036 508.589C345.036 507.411 345.036 505.71 344.905 503.617C344.775 499.299 344.644 493.018 344.513 485.299C344.121 469.859 343.598 448.532 342.945 424.98C342.814 419.092 342.684 413.335 342.553 407.839C342.422 405.092 342.161 402.344 342.291 399.596C342.291 396.848 343.076 394.232 344.644 392.007C346.212 390.045 348.565 388.605 351.048 388.082C353.401 387.559 355.753 387.297 358.106 387.297H370.783L389.08 387.428L394.047 387.559H395.354C395.354 387.559 395.354 387.559 395.485 387.689Z" fill="#455A64"/>
<path id="Vector_96" opacity="0.2" d="M314.845 404.961C314.845 404.961 313.669 389.391 319.42 380.493L318.505 405.353L314.845 404.961Z" fill="black"/>
<path id="Vector_97" d="M317.328 390.176C317.197 390.176 317.066 390.176 316.936 390.176L315.89 390.045C314.975 389.914 313.668 389.652 311.969 389.391C309.878 389.129 307.787 389.26 305.826 389.783C304.519 390.176 303.343 390.699 302.298 391.484C301.121 392.4 300.207 393.447 299.684 394.755C298.377 397.503 298.246 400.905 298.115 404.568C297.985 408.232 297.985 412.027 297.854 416.214C297.593 424.326 297.331 433.354 297.2 442.775C296.678 461.616 296.155 478.626 295.763 491.056C295.501 497.206 295.371 502.178 295.24 505.71C295.109 507.411 295.109 508.72 295.109 509.636C295.109 510.028 295.109 510.421 295.109 510.682C295.109 510.813 295.109 510.944 295.109 511.075C295.109 510.944 295.109 510.813 295.109 510.682C295.109 510.421 295.109 510.028 295.109 509.636C295.109 508.72 295.109 507.281 295.109 505.71C295.109 502.178 295.24 497.206 295.371 491.056C295.632 478.626 296.155 461.616 296.547 442.775C296.808 433.354 297.07 424.457 297.331 416.214C297.462 412.157 297.593 408.232 297.723 404.568C297.854 400.905 297.985 397.372 299.422 394.624C300.076 393.316 301.121 392.138 302.298 391.222C303.343 390.437 304.65 389.914 305.957 389.521C308.048 388.998 310.139 388.998 312.23 389.26C313.93 389.521 315.236 389.783 316.151 390.045L317.197 390.307C317.197 390.176 317.328 390.176 317.328 390.176Z" fill="#455A64"/>
<path id="Vector_98" d="M314.844 291.52C314.844 291.52 282.04 324.492 275.766 331.819C270.408 338.1 273.937 350.007 278.38 350.53C282.824 351.053 355.229 350.007 355.229 350.007L354.314 335.221C354.314 335.221 307.395 335.483 306.088 334.567C304.781 333.651 333.142 304.866 333.142 304.866L314.844 291.52Z" fill="#FFBE9D"/>
<path id="Vector_99" d="M401.627 295.838C401.627 295.838 411.56 326.063 412.737 329.726C413.913 333.39 420.186 348.437 408.424 349.745C396.661 351.054 333.535 349.745 333.535 349.745L328.83 334.437C328.83 334.437 389.865 334.306 389.473 331.035C389.081 327.764 380.193 300.417 380.193 300.417L401.627 295.838Z" fill="#FFBE9D"/>
<path id="Vector_100" d="M268.449 286.417L291.19 349.353L395.485 349.222L394.832 346.212L355.623 344.773L336.411 285.501L268.449 286.417Z" fill="#263238"/>
<path id="Vector_101" d="M314.975 315.071C314.975 317.165 313.407 318.865 311.316 318.865C309.224 318.865 307.525 317.295 307.525 315.202C307.525 313.37 308.832 311.8 310.531 311.538C312.884 311.277 314.714 312.847 314.975 315.071Z" fill="#FAFAFA"/>
<path id="Vector_102" d="M449.462 347.913H202.97H200.225H197.611V528.477H202.97V358.511H449.462V528.608H512.587V358.511V347.913H449.462Z" fill="#455A64"/>
</g>
<g id="freepik  character 1  inject 2 1">
<path id="Vector_103" d="M146.118 521.411V507.935L121.939 507.673L121.678 527.954L123.115 528.084C129.781 528.477 157.096 529.393 161.54 527.954C166.637 526.383 146.118 521.411 146.118 521.411Z" fill="#1BB7D9"/>
<path id="Vector_104" d="M162.193 526.645C162.193 526.907 153.175 527.038 141.936 527.038C130.696 527.038 121.678 526.907 121.678 526.645C121.678 526.384 130.696 526.253 141.936 526.253C153.175 526.253 162.193 526.515 162.193 526.645Z" fill="#263238"/>
<path id="Vector_105" d="M146.51 524.16C146.379 524.029 146.51 523.374 147.033 522.589C147.556 521.935 148.209 521.543 148.34 521.674C148.47 521.804 148.209 522.459 147.686 523.113C147.164 523.767 146.771 524.29 146.51 524.16Z" fill="#263238"/>
<path id="Vector_106" d="M148.078 525.075C147.817 524.944 147.947 524.159 148.47 523.374C148.993 522.589 149.516 522.066 149.777 522.197C150.038 522.328 149.646 522.982 149.254 523.767C148.731 524.552 148.339 525.075 148.078 525.075Z" fill="#263238"/>
<path id="Vector_107" d="M129.128 526.645C128.998 526.645 128.605 526.383 128.083 525.729C127.429 524.944 126.776 524.29 125.992 523.636C125.207 522.981 124.292 522.589 123.378 522.458C122.593 522.327 122.201 522.458 122.071 522.327C121.94 522.196 122.463 521.935 123.378 521.804C124.554 521.804 125.599 522.196 126.514 522.851C127.298 523.505 128.083 524.29 128.605 525.337C128.998 526.122 129.128 526.514 129.128 526.645Z" fill="#263238"/>
<path id="Vector_108" d="M146.64 521.673C146.77 521.935 146.378 522.327 145.594 522.589C144.81 522.851 144.287 522.72 144.287 522.589C144.287 522.458 144.81 522.066 145.333 521.935C145.986 521.542 146.509 521.412 146.64 521.673Z" fill="#263238"/>
<path id="Vector_109" d="M146.248 520.365C146.248 520.627 145.595 520.758 144.811 520.758C144.027 520.758 143.373 520.627 143.373 520.365C143.373 520.104 144.027 519.973 144.811 519.973C145.595 519.973 146.248 520.104 146.248 520.365Z" fill="#263238"/>
<path id="Vector_110" d="M216.302 118.283L216.563 114.227C216.956 112.002 217.086 109.647 217.086 107.292C217.086 106.114 216.825 105.068 216.433 103.89C216.041 102.582 215.387 101.273 214.603 100.096C214.08 99.5722 214.08 98.7871 214.603 98.2637C214.864 98.0021 215.387 97.8712 215.779 97.8712C216.956 98.1329 219.308 100.881 220.354 104.937C221.399 108.993 224.144 102.974 225.189 100.75C226.235 98.5254 229.764 91.9833 230.679 91.7216C231.986 91.4599 232.639 92.7683 231.463 94.9927C230.286 97.217 227.542 103.89 228.718 104.413C229.633 104.152 230.417 104.152 231.332 104.283C231.593 104.283 231.855 104.544 231.855 104.806C231.855 105.46 231.986 106.114 232.247 106.638C232.247 106.638 233.815 106.114 234.338 106.769C234.599 107.554 234.861 108.208 234.861 108.993C234.861 108.993 236.037 108.47 236.691 108.862C238.128 109.778 236.56 111.741 236.56 111.741C233.162 116.582 229.633 121.161 225.712 125.479L216.171 117.759" fill="#FFBE9D"/>
<path id="Vector_111" d="M100.113 118.021L99.9824 170.227L122.331 171.274L122.985 158.582C122.985 158.582 130.957 160.152 132.918 152.825C134.225 148.115 133.963 111.609 133.963 111.609L100.113 118.021Z" fill="#FFBE9D"/>
<path id="Vector_112" d="M132.656 103.498C125.86 105.722 124.161 106.507 121.155 106.638C118.149 106.769 97.3681 106.9 95.5384 118.545C95.277 118.021 95.1463 117.367 95.0156 116.844C94.8849 115.666 94.7542 114.489 94.7542 113.442C94.1007 114.489 93.97 115.797 94.3621 117.105C94.3621 117.367 94.4928 117.629 94.6235 117.891C94.4928 117.76 94.3621 117.629 94.2314 117.498C93.4472 116.844 92.5324 116.32 91.6175 116.059C90.8333 115.928 90.4412 115.928 90.3105 116.059C91.4868 116.582 92.6631 117.236 93.7086 118.021C94.3621 118.676 95.0156 119.33 95.4077 120.115V120.246C95.4077 120.246 90.964 118.283 92.1403 126.395C93.3165 134.508 98.5444 141.311 99.1978 154.658C99.1978 154.658 117.626 156.882 121.024 149.685L123.769 141.573C123.769 141.573 119.325 140.788 119.848 137.255C120.632 132.283 124.291 132.152 127.167 134.377L130.434 125.741C130.434 125.741 138.668 120.377 139.06 116.844C139.452 113.311 139.452 101.273 132.656 103.498Z" fill="#263238"/>
<path id="Vector_113" d="M38.1639 511.337L34.8965 525.861L57.5068 528.739L58.291 514.215L38.1639 511.337Z" fill="#1BB7D9"/>
<path id="Vector_114" d="M48.3566 511.99C48.3566 514.215 48.0952 516.439 47.5724 518.663C47.311 520.888 46.7882 523.112 46.1348 525.206C46.5269 520.757 47.1803 516.308 48.3566 511.99Z" fill="#263238"/>
<path id="Vector_115" d="M57.6364 527.168C56.5908 527.168 55.4145 527.038 54.369 526.776L46.5272 525.468C43.5212 524.944 40.646 524.421 38.6855 524.028C37.64 523.897 36.5944 523.505 35.5488 523.112C36.5944 523.112 37.7707 523.243 38.8162 523.505L46.6579 524.813C49.6639 525.337 52.5392 525.86 54.4997 526.253C55.5452 526.383 56.5908 526.776 57.6364 527.168Z" fill="#263238"/>
<path id="Vector_116" d="M71.6214 281.837L29.7988 516.832L65.6094 518.795C65.6094 518.795 103.642 316.118 109.131 315.595C111.483 315.333 112.398 517.094 114.228 516.701C116.058 516.309 152.914 517.356 152.914 517.356C152.914 517.356 147.948 278.566 148.078 278.566L71.6214 281.837Z" fill="#263238"/>
<path id="Vector_117" d="M124.553 310.884C124.553 311.015 118.41 312.585 110.699 314.155C102.988 315.725 96.7148 316.903 96.7148 316.772C96.7148 316.641 102.858 315.071 110.569 313.501C118.28 311.931 124.553 310.622 124.553 310.884Z" fill="#455A64"/>
<path id="Vector_118" d="M68.2223 505.056C68.2223 505.318 60.1192 505.187 50.1864 504.794C40.2535 504.533 32.1504 504.14 32.1504 503.878C32.1504 503.617 40.2535 503.747 50.1864 504.14C60.2499 504.533 68.2223 504.925 68.2223 505.056Z" fill="#455A64"/>
<path id="Vector_119" d="M152.783 505.187C152.783 505.317 144.027 505.317 133.31 504.925C122.593 504.532 113.836 504.14 113.836 504.009C113.836 503.878 122.593 503.878 133.31 504.271C144.027 504.663 152.783 504.925 152.783 505.187Z" fill="#455A64"/>
<path id="Vector_120" d="M89.5273 317.296C89.658 317.296 80.9014 359.297 69.7923 410.98C58.6832 462.663 49.5345 504.533 49.4038 504.533C49.2731 504.533 58.0297 462.532 69.1388 410.849C80.2479 359.166 89.3966 317.296 89.5273 317.296Z" fill="#455A64"/>
<path id="Vector_121" d="M133.441 504.533C133.441 504.402 133.441 504.271 133.441 504.009C133.441 503.617 133.441 503.224 133.311 502.57C133.311 501.262 133.18 499.43 133.049 497.075C132.919 492.364 132.657 485.43 132.396 476.925C131.873 459.915 131.35 436.363 131.22 410.325C131.089 384.288 131.35 360.736 131.742 343.726C131.873 335.221 132.134 328.287 132.265 323.576C132.396 321.221 132.396 319.389 132.396 318.081C132.396 317.427 132.396 317.034 132.396 316.642C132.396 316.511 132.396 316.38 132.396 316.118C132.396 316.249 132.396 316.38 132.396 316.642V318.081C132.396 319.389 132.396 321.221 132.396 323.576C132.265 328.417 132.265 335.221 132.134 343.726C131.873 360.736 131.742 384.288 131.873 410.325C132.004 436.363 132.396 459.784 132.788 476.925C132.919 485.43 133.18 492.233 133.311 497.075C133.311 499.43 133.441 501.262 133.441 502.57C133.441 503.224 133.441 503.617 133.441 504.009C133.441 504.271 133.441 504.402 133.441 504.533Z" fill="#455A64"/>
<path id="Vector_122" d="M212.51 117.105C212.51 117.105 184.803 158.975 182.45 161.331C180.098 163.686 136.707 168.265 136.707 168.265C123.376 165.256 80.2465 166.303 72.1434 172.191C65.0859 176.116 56.5907 185.275 52.147 206.864C44.5667 243.893 37.117 257.5 52.147 262.603C58.159 264.697 64.3017 266.136 70.7058 266.921L70.3137 283.669L148.208 278.828L144.287 237.22C143.765 225.575 143.634 213.406 143.242 202.546C148.077 200.714 193.429 183.574 196.565 183.051C199.702 182.527 229.501 127.704 229.501 127.704C230.416 121.423 212.51 117.105 212.51 117.105Z" fill="#1BB7D9"/>
<path id="Vector_123" d="M72.7973 192.863C72.928 192.863 72.5359 213.275 71.8824 238.397C71.229 263.519 70.4448 283.93 70.3141 283.93C70.1834 283.93 70.5755 263.519 71.229 238.397C71.8824 213.275 72.6666 192.863 72.7973 192.863Z" fill="#263238"/>
<path id="Vector_124" d="M186.372 170.751C185.327 169.312 184.542 167.872 184.15 166.171C183.497 164.601 182.974 163.031 182.582 161.33C183.628 162.769 184.412 164.209 184.804 165.91C185.457 167.48 185.98 169.05 186.372 170.751Z" fill="#263238"/>
<path id="Vector_125" d="M189.509 167.218C188.202 166.433 186.895 165.648 185.849 164.601C184.542 163.816 183.366 162.639 182.582 161.461C183.889 162.246 185.196 163.031 186.242 164.078C187.548 164.863 188.594 165.91 189.509 167.218Z" fill="#263238"/>
<path id="Vector_126" d="M227.934 131.236C227.019 130.844 226.104 130.32 225.32 129.666C223.752 128.619 221.53 127.311 218.916 125.872C216.302 124.432 214.08 123.386 212.25 122.731C211.336 122.339 210.421 121.946 209.506 121.423C210.551 121.554 211.466 121.815 212.512 122.339C217.217 124.04 221.53 126.395 225.581 129.404C226.496 129.797 227.28 130.451 227.934 131.236Z" fill="#263238"/>
<path id="Vector_127" d="M71.8827 238.528C70.3144 238.659 68.6153 238.397 67.047 238.005C65.4787 237.743 63.9103 237.22 62.4727 236.435C64.041 236.565 65.6094 236.827 67.1777 237.35C68.8767 237.612 70.4451 238.005 71.8827 238.528Z" fill="#263238"/>
<path id="Vector_128" d="M143.897 167.611C142.459 167.873 141.152 168.134 139.715 168.658C133.049 170.882 128.475 177.162 128.606 184.228C128.736 185.667 128.867 187.107 128.998 188.546C128.736 188.153 128.606 187.892 128.606 187.499C128.344 186.452 128.213 185.406 128.083 184.359C127.691 177.032 132.526 170.359 139.584 168.265C140.63 168.003 141.675 167.742 142.721 167.742C143.113 167.48 143.505 167.611 143.897 167.611Z" fill="#263238"/>
<path id="Vector_129" d="M148.209 278.959C148.209 279.09 130.826 280.398 109.262 281.706C87.6969 283.015 70.3145 283.931 70.3145 283.8C70.3145 283.669 87.6969 282.361 109.262 281.052C130.826 279.744 148.209 278.828 148.209 278.959Z" fill="#263238"/>
<path id="Vector_130" d="M117.235 166.826C117.366 167.088 117.366 167.48 117.496 167.742C117.496 168.135 117.627 168.527 117.758 168.92C117.888 169.312 117.888 169.966 117.888 170.621C118.019 174.153 117.496 177.686 116.189 180.957C114.36 185.929 110.962 190.116 106.518 192.995C105.864 193.387 105.211 193.78 104.557 194.042C103.904 194.434 103.12 194.696 102.466 194.958C101.029 195.481 99.4604 195.873 98.0227 196.397C96.4544 196.92 95.0167 197.574 93.7098 198.359C92.4028 199.275 91.2265 200.453 90.181 201.761C88.3512 204.509 86.6522 207.257 85.0839 210.135C83.5155 212.883 81.4244 215.238 78.6798 216.808C76.1966 218.117 73.3213 218.64 70.446 218.248C67.9628 217.986 65.6102 217.332 63.3884 216.285C60.2517 214.715 57.3764 212.621 54.8932 210.004C53.9783 209.089 53.3249 208.434 52.9328 207.911C52.6714 207.649 52.41 207.388 52.2793 207.126C52.5407 207.388 52.8021 207.518 53.0635 207.78L55.1546 209.743C57.6378 212.229 60.5131 214.191 63.6498 215.762C65.7409 216.808 68.0934 217.463 70.446 217.593C73.1906 217.855 75.9352 217.332 78.2877 216.023C80.9016 214.453 82.9927 212.229 84.4304 209.612C85.9987 206.733 87.6978 203.855 89.6582 201.238C90.7038 199.93 92.0107 198.752 93.3177 197.705C94.7553 196.789 96.193 196.135 97.7613 195.612L102.205 194.172C102.858 193.911 103.643 193.649 104.296 193.387C104.95 193.126 105.603 192.733 106.257 192.341C110.569 189.593 113.968 185.537 115.928 180.696C117.235 177.424 117.888 174.023 117.758 170.49C117.758 169.836 117.758 169.312 117.627 168.789C117.496 168.265 117.496 167.873 117.496 167.611C117.235 167.48 117.235 167.219 117.235 166.826Z" fill="#263238"/>
<path id="Vector_131" d="M146.64 262.996C146.64 262.996 146.378 262.734 145.725 262.472C144.941 261.949 144.026 261.556 142.98 261.426C141.412 261.164 139.844 261.033 138.275 261.033C136.446 260.902 134.354 260.902 132.002 260.771C129.519 260.771 126.905 260.379 124.552 259.725C121.677 258.939 119.063 257.631 116.711 255.93C114.097 254.098 111.875 251.612 110.307 248.734C108.607 245.724 107.693 242.192 107.693 238.79C107.562 231.855 111.483 225.444 117.625 222.434C118.932 221.78 120.37 221.257 121.938 220.995C123.376 220.733 124.683 220.602 126.121 220.602C128.604 220.733 131.087 220.602 133.57 220.341C137.23 220.079 140.497 218.116 142.327 214.845C142.719 213.929 142.98 213.013 143.111 212.098C143.242 211.443 143.242 211.051 143.242 211.051C143.242 211.182 143.242 211.182 143.242 211.312C143.242 211.443 143.242 211.705 143.242 212.098C143.242 213.144 142.98 214.06 142.458 214.976C141.804 216.415 140.759 217.724 139.452 218.64C137.753 219.817 135.661 220.602 133.57 220.864C131.087 221.126 128.473 221.257 125.99 221.126C124.552 221.126 123.245 221.257 121.808 221.518C120.37 221.78 118.932 222.303 117.756 222.958C111.875 225.967 108.085 232.117 108.215 238.79C108.215 242.192 109.13 245.463 110.699 248.472C112.267 251.22 114.358 253.575 116.841 255.407C119.194 257.108 121.677 258.285 124.422 259.201C126.774 259.855 129.257 260.248 131.741 260.379C134.093 260.51 136.184 260.51 138.014 260.771C139.582 260.902 141.151 261.033 142.719 261.295C143.634 261.556 144.679 261.949 145.464 262.603C145.725 262.734 145.856 262.865 146.117 263.126C146.509 262.865 146.64 262.996 146.64 262.996Z" fill="#263238"/>
<path id="Vector_132" d="M103.381 282.229C103.381 281.313 103.381 280.397 103.25 279.482C102.727 276.996 101.29 274.771 99.1985 273.332C98.545 272.939 97.7608 272.547 96.9767 272.285C96.0618 272.024 95.2776 271.893 94.3627 271.762C92.2716 271.762 90.3112 271.5 88.2201 270.977C87.1745 270.584 86.1289 270.061 85.2141 269.145C84.4299 268.36 83.6457 267.313 83.2536 266.136C82.3388 263.78 82.0774 261.294 82.3388 258.808C83.1229 253.705 85.3448 249.388 85.6062 245.201C85.8675 243.238 85.7368 241.144 85.0834 239.313C84.5606 237.612 83.515 236.303 82.0774 235.257C79.9863 233.686 77.503 233.032 74.8891 233.425C73.9743 233.556 73.0594 233.817 72.1445 234.21C72.9287 233.686 73.8436 233.294 74.7584 233.163C77.3723 232.77 80.117 233.294 82.2081 234.864C83.7764 235.911 84.822 237.481 85.4755 239.182C86.1289 241.144 86.3903 243.238 86.1289 245.331C85.7369 249.78 83.515 254.098 82.8616 258.939C82.4695 261.294 82.7309 263.65 83.6457 265.874C84.0378 266.921 84.6913 267.837 85.4755 268.622C86.2596 269.407 87.1745 269.93 88.2201 270.323C90.1805 270.846 92.1409 271.108 94.2321 271.238C95.1469 271.369 96.0618 271.5 96.9767 271.762C100.375 272.939 102.858 275.949 103.381 279.482C103.511 280.136 103.511 280.921 103.381 281.575C103.511 281.706 103.511 281.968 103.381 282.229Z" fill="#263238"/>
<path id="Vector_133" d="M100.767 209.742C100.767 209.742 101.028 209.48 101.682 209.219C102.597 208.957 103.642 209.088 104.557 209.35C105.211 209.611 105.733 210.004 106.256 210.527C106.779 211.181 107.04 211.836 107.171 212.621C107.432 214.453 106.518 216.284 104.949 217.2C103.25 217.985 101.29 217.724 99.9828 216.415C99.46 215.892 98.9372 215.107 98.8066 214.322C98.6759 213.668 98.6759 213.013 98.9372 212.359C99.1986 211.443 99.7214 210.658 100.636 210.004C100.898 209.742 101.29 209.611 101.551 209.611C101.551 209.611 101.29 209.742 100.767 210.266C100.114 210.789 99.5907 211.574 99.46 212.49C99.0679 213.798 99.46 215.107 100.506 215.892C101.682 216.939 103.381 217.2 104.819 216.546C106.256 215.761 106.91 214.191 106.779 212.621C106.648 211.312 105.864 210.266 104.557 209.742C103.773 209.35 102.858 209.219 101.943 209.35C101.159 209.742 100.767 209.873 100.767 209.742Z" fill="#263238"/>
<path id="Vector_134" d="M61.5583 265.613C61.4276 265.613 62.0811 263.258 62.2118 259.594C62.2118 258.547 62.2118 257.501 62.2118 256.585C62.2118 255.538 61.9504 254.36 61.8197 253.052C61.4276 250.435 60.6434 247.818 59.7286 245.332C58.683 242.846 57.5067 240.491 56.0691 238.266C55.4156 237.351 54.6314 236.435 53.978 235.519C53.3245 234.734 52.671 233.949 51.8868 233.294C49.2729 230.678 47.3125 229.369 47.3125 229.238C47.8353 229.5 48.2274 229.762 48.7501 230.023C49.2729 230.416 49.7957 230.808 50.3185 231.201C50.972 231.724 51.6254 232.248 52.2789 232.902C53.0631 233.556 53.7166 234.341 54.3701 235.126C55.1542 236.042 55.9384 236.958 56.5919 237.874C58.1602 240.098 59.4672 242.584 60.382 245.07C61.2969 247.556 62.0811 250.173 62.4732 252.921C62.6039 254.099 62.7346 255.276 62.7346 256.454C62.8653 257.5 62.8653 258.547 62.7346 259.594C62.7346 260.379 62.6039 261.295 62.4732 262.08C62.3425 262.734 62.2118 263.388 62.0811 263.912C61.9504 264.566 61.8197 265.089 61.5583 265.613Z" fill="#263238"/>
<path id="Vector_135" d="M197.219 182.788C196.566 182.526 195.912 182.265 195.259 181.872C194.082 181.349 192.253 180.433 189.9 179.648C187.286 178.601 184.411 177.947 181.666 177.554C178.268 177.031 174.739 177.293 171.341 178.078C167.943 178.863 164.807 180.564 162.193 182.919C160.102 184.882 158.533 187.237 157.488 189.854C156.834 191.686 156.573 193.517 156.704 195.48C156.834 196.788 156.965 197.573 156.965 197.573C156.965 197.573 156.834 197.443 156.834 197.05C156.704 196.527 156.573 196.003 156.573 195.48C156.311 193.517 156.573 191.555 157.226 189.723C158.141 186.975 159.71 184.489 161.931 182.396C164.545 179.91 167.813 178.209 171.211 177.424C174.739 176.639 178.268 176.377 181.797 176.9C184.672 177.293 187.417 178.078 190.162 179.125C191.991 179.779 193.69 180.695 195.389 181.611C196.043 182.003 196.435 182.134 196.827 182.396C196.827 182.526 197.088 182.657 197.219 182.788Z" fill="#263238"/>
<path id="Vector_136" d="M207.938 124.171C207.938 124.171 208.068 124.302 208.33 124.433C208.591 124.694 208.983 125.087 209.245 125.479C210.29 126.788 211.074 128.227 211.728 129.797C212.643 132.152 212.904 134.638 212.773 137.124C212.512 140.134 211.597 143.143 209.898 145.629C208.199 148.115 205.847 150.209 203.102 151.517C200.88 152.564 198.528 153.218 196.044 153.349C194.345 153.48 192.777 153.349 191.078 152.826C190.686 152.695 190.163 152.564 189.771 152.433C189.51 152.302 189.379 152.302 189.379 152.302C191.47 152.826 193.692 152.956 195.914 152.826C198.266 152.564 200.619 151.91 202.71 150.863C205.324 149.555 207.546 147.592 209.245 145.106C212.12 140.526 212.904 134.9 211.205 129.797C210.29 127.835 209.245 125.872 207.938 124.171Z" fill="#263238"/>
<path id="Vector_137" d="M122.593 166.694C118.802 167.087 115.012 167.218 111.222 167.087C107.432 167.218 103.642 167.087 99.8516 166.825C103.642 166.433 107.432 166.302 111.222 166.433C115.012 166.302 118.802 166.302 122.593 166.694Z" fill="#263238"/>
</g>
</g>
</svg>
